<svg height="310" width="496" xmlns:xlink="http://www.w3.org/1999/xlink" xmlns="http://www.w3.org/2000/svg" id="mscgen_js-svg-__svg" version="1.1"><desc id="mscgen_js-svg-__svg__msc_source">

# Generated by mscgen_js - https://sverweij.github.io/mscgen_js
msc {
    a [label="consumer"], b [label="shopfront"], c;

    a =&gt;&gt; b [label="buy (commestible)"];
    b =&gt;&gt; c [label="lookup_price(commestible)"];
    c &gt;&gt; b [label="price"];
    b =&gt;&gt; a [label=""];
    a =&gt;&gt; b [label="money"];
    ...;
}</desc><defs><style type="text/css">svg{  font-family:Helvetica,sans-serif;  font-size:12px;  font-weight:normal;  font-style:normal;  text-decoration:none;  background-color:white;  stroke:black;  color:black;}rect{  fill:none;  stroke:black;  stroke-width:2;}.bglayer{  fill:white;  stroke:white;  stroke-width:0;}rect.textbg{  fill:white;  stroke:white;  stroke-width:0;  opacity:0.9;}line{  stroke:black;  stroke-width:2;}.arcrowomit{  stroke-dasharray:2,2;}text{  color:inherit;  stroke:none;  text-anchor:middle;}text.entity{  text-decoration:underline;}text.anchor-start{  text-anchor:start;}path{  stroke:black;  color:black;  stroke-width:2;  fill:none;}.dotted{  stroke-dasharray:5,2;}.striped{  stroke-dasharray:10,5;}.arrow-marker{  overflow:visible;}.arrow-style{  stroke-width:1;}.arcrowomit{  stroke-dasharray:2,2;}.box{  /* fill: #ffc;  no-inherit */  fill:white;  opacity:0.9;}.boxtext, .arctext{  font-size:0.8em;  text-anchor:middle;}.comment{  stroke-dasharray:5,2;} .inherit{  stroke:inherit;  color:inherit;} .inherit-fill{  fill:inherit;}.watermark{  stroke:black;  color:black;  fill:black;  font-size: 48pt;  font-weight:bold;  opacity:0.14;}</style><marker markerHeight="10" markerWidth="10" markerUnits="strokeWidth" refY="3" refX="9" viewBox="0 0 10 10" class="arrow-marker" id="mscgen_js-svg-__svgcallback-black" orient="auto"><path style="stroke-dasharray:100,1; stroke : black" class="arrow-style" d="M 1,1 l 8,2 l-8,2"/></marker><marker markerHeight="10" markerWidth="10" markerUnits="strokeWidth" refY="3" refX="9" viewBox="0 0 10 10" class="arrow-marker" id="mscgen_js-svg-__svgcallback-l-black" orient="auto"><path style="stroke-dasharray:100,1; stroke : black" class="arrow-style" d="M17,1 l-8,2 l 8,2"/></marker><g id="mscgen_js-svg-__svg__defs"><g id="mscgen_js-svg-__svga"><rect height="38" width="100"/><g><text class="entity" y="23" x="50"><tspan>consumer</tspan></text></g></g><g id="mscgen_js-svg-__svgb"><rect height="38" width="100"/><g><text class="entity" y="23" x="50"><tspan>shopfront</tspan></text></g></g><g id="mscgen_js-svg-__svgc"><rect height="38" width="100"/><g><text class="entity" y="23" x="50"><tspan>c</tspan></text></g></g><g id="mscgen_js-svg-__svgarcrow"><line class="mscgen_js-svg-__svgarcrow" y2="19" x2="50" y1="-19" x1="50"/><line class="mscgen_js-svg-__svgarcrow" y2="19" x2="210" y1="-19" x1="210"/><line class="mscgen_js-svg-__svgarcrow" y2="19" x2="370" y1="-19" x1="370"/></g><g id="mscgen_js-svg-__svg0_0"><line marker-end="url(#mscgen_js-svg-__svgcallback-black)" style="stroke:black" y2="0" x2="210" y1="0" x1="50"/><g><rect class="textbg" y="-15" x="80.05000305175781" height="13" width="99.9000015258789"/><text y="-5" x="130"><tspan>buy (commestible)</tspan></text></g></g><g id="mscgen_js-svg-__svgarcrow_0"><line class="arcrow" y2="19" x2="50" y1="-19" x1="50"/><line class="arcrow" y2="19" x2="210" y1="-19" x1="210"/><line class="arcrow" y2="19" x2="370" y1="-19" x1="370"/></g><g id="mscgen_js-svg-__svg1_0"><line marker-end="url(#mscgen_js-svg-__svgcallback-black)" style="stroke:black" y2="0" x2="370" y1="0" x1="210"/><g><rect class="textbg" y="-15" x="217.40834045410156" height="13" width="145.18333435058594"/><text y="-5" x="290"><tspan>lookup_price(commestible)</tspan></text></g></g><g id="mscgen_js-svg-__svgarcrow_1"><line class="arcrow" y2="19" x2="50" y1="-19" x1="50"/><line class="arcrow" y2="19" x2="210" y1="-19" x1="210"/><line class="arcrow" y2="19" x2="370" y1="-19" x1="370"/></g><g id="mscgen_js-svg-__svg2_0"><line marker-end="url(#mscgen_js-svg-__svgcallback-black)" style="stroke:black;stroke-dasharray:5,2;" y2="0" x2="210" y1="0" x1="370"/><g><rect class="textbg" y="-15" x="276.01666259765625" height="13" width="27.96666717529297"/><text y="-5" x="290"><tspan>price</tspan></text></g></g><g id="mscgen_js-svg-__svgarcrow_2"><line class="arcrow" y2="19" x2="50" y1="-19" x1="50"/><line class="arcrow" y2="19" x2="210" y1="-19" x1="210"/><line class="arcrow" y2="19" x2="370" y1="-19" x1="370"/></g><g id="mscgen_js-svg-__svg3_0"><line marker-end="url(#mscgen_js-svg-__svgcallback-black)" style="stroke:black" y2="0" x2="50" y1="0" x1="210"/><g/></g><g id="mscgen_js-svg-__svgarcrow_3"><line class="arcrow" y2="19" x2="50" y1="-19" x1="50"/><line class="arcrow" y2="19" x2="210" y1="-19" x1="210"/><line class="arcrow" y2="19" x2="370" y1="-19" x1="370"/></g><g id="mscgen_js-svg-__svg4_0"><line marker-end="url(#mscgen_js-svg-__svgcallback-black)" style="stroke:black" y2="0" x2="210" y1="0" x1="50"/><g><rect class="textbg" y="-15" x="111.00833129882812" height="13" width="37.983333587646484"/><text y="-5" x="130"><tspan>money</tspan></text></g></g><g id="mscgen_js-svg-__svgarcrow_4"><line class="arcrow" y2="19" x2="50" y1="-19" x1="50"/><line class="arcrow" y2="19" x2="210" y1="-19" x1="210"/><line class="arcrow" y2="19" x2="370" y1="-19" x1="370"/></g><g id="mscgen_js-svg-__svg5_0"><g id="mscgen_js-svg-__svg5_0_lbl"/></g><g id="mscgen_js-svg-__svgarcrow_5"><line class="arcrowomit" y2="19" x2="50" y1="-19" x1="50"/><line class="arcrowomit" y2="19" x2="210" y1="-19" x1="210"/><line class="arcrowomit" y2="19" x2="370" y1="-19" x1="370"/></g></g></defs><g transform="translate(38,3) scale(1,1)" id="mscgen_js-svg-__svg__body"><g id="mscgen_js-svg-__svg__background"><rect class="bglayer" y="-3" x="-38" height="310" width="496"/></g><g id="mscgen_js-svg-__svg__arcspanlayer"/><g id="mscgen_js-svg-__svg__lifelinelayer"><use xlink:href="#mscgen_js-svg-__svgarcrow" y="57" x="0"/><use xlink:href="#mscgen_js-svg-__svgarcrow_0" y="95" x="0"/><use xlink:href="#mscgen_js-svg-__svgarcrow_1" y="133" x="0"/><use xlink:href="#mscgen_js-svg-__svgarcrow_2" y="171" x="0"/><use xlink:href="#mscgen_js-svg-__svgarcrow_3" y="209" x="0"/><use xlink:href="#mscgen_js-svg-__svgarcrow_4" y="247" x="0"/><use xlink:href="#mscgen_js-svg-__svgarcrow_5" y="285" x="0"/></g><g id="mscgen_js-svg-__svg__sequencelayer"><use xlink:href="#mscgen_js-svg-__svga" y="0" x="0"/><use xlink:href="#mscgen_js-svg-__svgb" y="0" x="160"/><use xlink:href="#mscgen_js-svg-__svgc" y="0" x="320"/><use xlink:href="#mscgen_js-svg-__svg0_0" y="95" x="0"/><use xlink:href="#mscgen_js-svg-__svg1_0" y="133" x="0"/><use xlink:href="#mscgen_js-svg-__svg2_0" y="171" x="0"/><use xlink:href="#mscgen_js-svg-__svg3_0" y="209" x="0"/><use xlink:href="#mscgen_js-svg-__svg4_0" y="247" x="0"/><use xlink:href="#mscgen_js-svg-__svg5_0" y="285" x="0"/></g><g id="mscgen_js-svg-__svg__notelayer"/><g id="mscgen_js-svg-__svg__watermark"/></g></svg>