<svg version="1.1" xmlns="http://www.w3.org/2000/svg" viewBox="0 0 400 400" preserveAspectRatio="xMidYMid meet"><g transform="translate(0,400) scale(0.1,-0.1)"><path d="M1940 3630l0-140-745 0-745 0 0-672c0-673-7-880-36-1143-39-349-130-723-241-988-38-91-43-111-32-121 21-19 339-216 349-216 21 0 151 248 215 410 74 188 154 513 189 765 46 329 65 715 66 1283l0 332 1420 0 1420 0 0 175 0 175-670 0-670 0 0 140 0 140-260 0-260 0 0-140zM1120 2790l0-160 291 0 291 0-127-135c-75-80-124-140-119-145 5-5 106-53 224-108 118-54 274-129 345-165l130-66-562 0-563-1 0-190 0-190 520 0 520 0 0-373c0-415 1-407-68-427-21-5-148-10-293-10l-255 0 27-222c16-123 28-224 28-225 2-9 698-1 743 8 128 27 253 110 303 200l30 54 3 498 3 497 267 0 267-1-71-68c-87-83-197-171-298-237-42-27-76-54-76-59 0-14 252-265 266-265 21 0 370 239 504 345 128 102 400 362 400 382 0 6-48 70-106 144l-105 134-497 5-497 5 77 55c67 48 96 80 71 80-5 0-23 9-42 21l-34 21 179 92c190 98 348 190 454 264 98 69 201 154 198 163-2 5-49 60-106 124l-104 115-1109 0-1109 0 0-160zm1615-176c-31-24-219-135-321-189l-91-48-144 63c-79 35-214 92-299 127l-155 63 515 0c467-1 513-2 495-16z"/></g></svg>
