<svg version="1.1" xmlns="http://www.w3.org/2000/svg" fill="gray" stroke="none" viewBox="0 0 400 400"><g transform="translate(0,400) scale(0.1,-0.1)"><path d="M1940 3630 l0 -140 -740 0 -740 0 0 -572 c0 -604 -11 -959 -36 -1196 -40 -385 -135 -777 -254 -1054 -22 -50 -38 -93 -37 -94 1 -1 82 -51 180 -112 l178 -111 36 57 c57 89 157 305 203 437 97 282 158 600 201 1045 6 63 13 370 16 683 l5 567 1424 0 1424 0 0 175 0 175 -670 0 -670 0 0 140 0 140 -260 0 -260 0 0 -140z" /><path d="M1130 2790 l0 -160 286 0 287 0 -24 -30 c-13 -16 -70 -78 -126 -138 l-102 -108 222 -103 c122 -56 285 -133 362 -171 l140 -68 -567 -1 -568 -1 0 -190 0 -190 520 0 521 0 -3 -380 -3 -379 -23 -23 c-22 -23 -26 -23 -308 -26 l-286 -3 5 -37 c3 -20 16 -121 28 -225 l22 -187 331 0 c368 0 421 6 532 61 85 42 146 97 178 161 l26 52 0 493 0 493 277 0 277 0 -35 -36 c-59 -62 -220 -193 -322 -262 l-97 -66 127 -130 c71 -72 129 -132 129 -134 5 -11 284 175 437 291 218 166 467 400 467 439 0 6 -48 70 -107 144 l-106 134 -496 2 -495 3 82 59 c45 32 80 62 77 66 -2 3 -22 15 -45 25 -22 10 -40 21 -40 24 0 4 53 33 118 65 144 72 369 199 480 273 119 79 234 172 229 186 -2 7 -48 62 -103 124 l-99 112 -1102 0 -1103 1 0 -160z m1610 -180 c-35 -27 -208 -129 -321 -189 l-95 -51 -105 47 c-57 25 -194 84 -304 129 l-200 84 525 0 c521 0 525 -1 500 -20z"/></g></svg>
