<svg version="1.0" xmlns="http://www.w3.org/2000/svg" viewBox="0 0 400 400" preserveAspectRatio="xMidYMid meet"><g transform="translate(0,400) scale(0.1,-0.1)" fill="#000" stroke="none"><path d="M1940 3630 l0 -140 -745 0 -745 0 0 -672 c0 -673 -7 -880 -36 -1143 -39 -349 -130 -723 -241 -988 -38 -91 -43 -111 -32 -121 21 -19 339 -216 349 -216 21 0 151 248 215 410 74 188 154 513 189 765 46 329 65 715 66 1283 l0 332 1420 0 1420 0 0 175 0 175 -670 0 -670 0 0 140 0 140 -260 0 -260 0 0 -140z"/><path d="M1120 2790 l0 -160 291 0 291 0 -127 -135 c-75 -80 -124 -140 -119 -145 5 -5 106 -53 224 -108 118 -54 274 -129 345 -165 l130 -66 -562 0 -563 -1 0 -190 0 -190 520 0 520 0 0 -373 c0 -415 1 -407 -68 -427 -21 -5 -148 -10 -293 -10 l-255 0 27 -222 c16 -123 28 -224 28 -225 2 -9 698 -1 743 8 128 27 253 110 303 200 l30 54 3 498 3 497 267 0 267 -1 -71 -68 c-87 -83 -197 -171 -298 -237 -42 -27 -76 -54 -76 -59 0 -14 252 -265 266 -265 21 0 370 239 504 345 128 102 400 362 400 382 0 6 -48 70 -106 144 l-105 134 -497 5 -497 5 77 55 c67 48 96 80 71 80 -5 0 -23 9 -42 21 l-34 21 179 92 c190 98 348 190 454 264 98 69 201 154 198 163 -2 5 -49 60 -106 124 l-104 115 -1109 0 -1109 0 0 -160z m1615 -176 c-31 -24 -219 -135 -321 -189 l-91 -48 -144 63 c-79 35 -214 92 -299 127 l-155 63 515 0 c467 -1 513 -2 495 -16z"/></g></svg>
