<svg height="762" width="674" version="1.1" xmlns="http://www.w3.org/2000/svg" xmlns:xlink="http://www.w3.org/1999/xlink" id="svg_output">
    <desc id="msc_source">msc {
  # options
  hscale="1.0" /*, width=600 */,arcgradient="8";

  # entities
  a [label="entity a", textbgcolor="pink"],
  b[textbgcolor="violet"],
  "entity c"[textbgcolor="purple", textcolor="yellow", linecolor="yellow"],
  d[textbgcolor="black", textcolor="white"];

  # arcs
  a =&gt;&gt; b [label="do magic", textcolor="cyan", textbgcolor="blue"];
  b -&gt; "entity c" [label="doMagic()"];  

  "entity c" &gt;&gt; b[label="same line as response, note"],
  b &gt;&gt; a [label="response", linecolor="green", textcolor="green"],
  d note d [label="note with a link", url="https://github.com/sverweij/mscgen_js"];
  b :&gt; "entity c" [label="with emphasis"];
  "entity c" :&gt; "entity c"[label="emph selfie with arcskip", arcskip="2"];
  ... [label="More magic stuff will be happening here", textcolor="red", textbgcolor="gold"];
  |||;

  --- [label="When a signal appears to be lost, a calls d", id="*",textcolor="red", linecolor="red"];
  a-xb [label="lost:-/", linecolor="red", textcolor="blue"];
  a=&gt;d[label="log this"];
  d =&gt;&gt; d [label="self reference", textbgcolor="red", textcolor="white", linecolor="green"];
  d &gt;&gt;a[label="this message skips an arc", arcskip="1"];
  |||;
  ---[label="Note tests", textcolor="green", linecolor="green"];
  "entity c" note "entity c" [label="conference!"],
  "entity c" &lt;&lt;=&gt;&gt; d,
  "entity c" &lt;-&gt; b;
  a box a  [label="Black box example", textcolor="red", textbgcolor="black", linecolor="yellow"],
  b rbox b [label="This is an 'rbox' example", textbgcolor="cyan"],
  "entity c" abox "entity c" [label="This is an 'abox'", textcolor="white", textbgcolor="brown", linecolor="orange"],
  d note d [label="Example of a note", linecolor="green", textcolor="green", textbgcolor="#0F0"];
  |||;
  ---[label="broadcast tests", textcolor="purple", linecolor="brown"];
  * &lt;&lt;= b  [label="This is a broadcast message", linecolor="fuchsia"];
  "entity c" -x * [label="Broadcast, but lost to everyone :-(", textcolor="red", linecolor="red"];
  ...; # it goes on and on and on ...
}

</desc>
    <defs>
    <style type="text/css">
        svg {
            font-family: Helvetica, sans-serif;
            font-size: 9pt;
            background-color: white;
            stroke : black;
            color  : black;
        }
        rect {
            fill: none;
            stroke: inherit;
            stroke-width: 2;
        }
        rect.textbg {
            fill:white;
            stroke:white;
            stroke-width:0;
        }
        line {
            stroke: inherit;
            stroke-width: 2;
        }
        .arcrowomit {
            stroke-dasharray: 2,2;
        }
        text {
            color: inherit;
            stroke: inherit;
            text-anchor: middle;
            stroke-width:0.1; /* makes font seem more crisp. Overrides color to be black */
        }
        text.entity {
            text-decoration : underline;
        }
        text.anchor-start {
            text-anchor: start;
        }
        .watermark {
            font-size : 4.3em;
            fill: #FCFCFC;
            stroke: #FCFCFC;
        }
        path {
            stroke : inherit;
            stroke-width : 2;
            fill : none;
        }
        .dotted {
            stroke-dasharray: 5,2;
        }
        .arrow-marker {
            overflow:visible;
        }
        .arrow-style {
            stroke-dasharray : none;
            stroke-width : 1;
        }
        .filled {
            stroke:inherit;
            fill:black; /* no-inherit */
        }
        .signal {
            marker-end : url(#signal);
        }
        .signal-both {
            marker-end : url(#signal);
            marker-start : url(#signal-l);
        }
        .method {
            marker-end : url(#method);
        }
        .method-both {
            marker-end : url(#method);
            marker-start : url(#method-l);
        }
        .returnvalue {
            stroke-dasharray: 5,2;
            marker-end : url(#returnvalue);
        }
        .returnvalue-both {
            stroke-dasharray: 5,2;
            marker-end : url(#returnvalue);
            marker-start : url(#returnvalue-l);
        }
        .callback {
            marker-end : url(#callback);
        }
        .callback-both {
            marker-end : url(#callback);
            marker-start : url(#callback-l);
        }
        .emphasised {
            marker-end : url(#method);
        }
        .emphasised-both {
            marker-end : url(#method);
            marker-start : url(#method-l);
        }
        .lost {
            marker-end : url(#lost);
        }
        .arcrowomit {
            stroke-dasharray: 2,2;
        }
        .box {
            fill: #ffc; /* no-inherit */
            opacity: 0.9;
        }
        .boxtext, .arctext {
            font-size: 0.8em;
            text-anchor: middle;
        }
        .comment {
            stroke-dasharray: 5,2;
        }
    </style>
    <!-- arrow heads -->
    <marker orient="auto" id="signal" class="arrow-marker">
       <path d="M0,0 l-8,2" class="arrow-style"></path>
    </marker>
    <marker orient="auto" id="signal-l" class="arrow-marker">
       <path d="M0,0 l8,2" class="arrow-style"></path>
    </marker>
    <marker orient="auto" id="method" class="arrow-marker">
       <polygon points="-8,2 0,0, -8,-2" class="filled arrow-style"></polygon>
    </marker>
    <marker orient="auto" id="method-l" class="arrow-marker">
       <polygon points="8,2 0,0, 8,-2" class="filled arrow-style"></polygon>
    </marker>
    <marker orient="auto" id="returnvalue" class="arrow-marker">
       <path d="M0,0 l-8,2 M0,0 l-8,-2" class="arrow-style"></path>
    </marker>
    <marker orient="auto" id="returnvalue-l" class="arrow-marker">
       <path d="M0,0 l8,2 M0,0 l8,-2" class="arrow-style"></path>
    </marker>
    <marker orient="auto" id="callback" class="arrow-marker">
       <path d="M0,0 l-8,2 M0,0 l-8,-2" class="arrow-style"></path>
    </marker>
    <marker orient="auto" id="callback-l" class="arrow-marker">
       <path d="M0,0 l8,2 M0,0 l8,-2" class="arrow-style"></path>
    </marker>
    <marker orient="auto" id="emphasised" class="arrow-marker">
       <path d="M0,0 l-8,2" class="arrow-style"></path>
    </marker>
    <marker orient="auto" id="emphasised-l" class="arrow-marker">
       <path d="M0,0 l8,2" class="arrow-style"></path>
    </marker>
    <marker orient="auto" id="lost" class="arrow-marker">
       <path d="M-2.5,-2.5 L2.5,2.5 M-2.5,2.5 L2.5,-2.5" class="arrow-style"></path>
    </marker>

    <!-- entity and arc definitions -->
    <g id="defs"><g id="a"><rect style="fill:pink;" height="30" width="100"></rect><g id="a_txt"><rect style="fill: pink; stroke:pink;" class="textbg" y="11" x="27.2" height="12" width="45.6"></rect><text class="entity" y="20" x="50">entity a</text></g></g><g id="b"><rect style="fill:violet;" height="30" width="100"></rect><g id="b_txt"><rect style="fill: violet; stroke:violet;" class="textbg" y="11" x="47.15" height="12" width="5.7"></rect><text class="entity" y="20" x="50">b</text></g></g><g id="entity c"><rect style="fill:purple;stroke:yellow;" height="30" width="100"></rect><g id="entity c_txt"><rect style="fill: purple; stroke:purple;" class="textbg" y="11" x="27.2" height="12" width="45.6"></rect><text style="fill:yellow;stroke:yellow;" class="entity" y="20" x="50">entity c</text></g></g><g id="d"><rect style="fill:black;" height="30" width="100"></rect><g id="d_txt"><rect style="fill: black; stroke:black;" class="textbg" y="11" x="47.15" height="12" width="5.7"></rect><text style="fill:white;stroke:white;" class="entity" y="20" x="50">d</text></g></g><g id="arcrow"><line class="arcrow" y2="16.5" x2="50" y1="-16.5" x1="50"></line><line class="arcrow" y2="16.5" x2="210" y1="-16.5" x1="210"></line><line class="arcrow" y2="16.5" x2="370" y1="-16.5" x1="370"></line><line class="arcrow" y2="16.5" x2="530" y1="-16.5" x1="530"></line></g><g id="arcrowomit"><line class="arcrowomit" y2="16.5" x2="50" y1="-16.5" x1="50"></line><line class="arcrowomit" y2="16.5" x2="210" y1="-16.5" x1="210"></line><line class="arcrowomit" y2="16.5" x2="370" y1="-16.5" x1="370"></line><line class="arcrowomit" y2="16.5" x2="530" y1="-16.5" x1="530"></line></g><g id="0_0"><g id="0_0_txt"><rect style="fill: blue; stroke:blue;" class="textbg" y="-12" x="107.2" height="12" width="45.6"></rect><text style="fill:cyan;stroke:cyan;" y="-3" x="130">do magic</text></g><line class="callback" y2="8" x2="210" y1="0" x1="50"></line></g><g id="1_0"><g id="1_0_txt"><rect class="textbg" y="-12" x="264.35" height="12" width="51.300000000000004"></rect><text y="-3" x="290">doMagic()</text></g><line class="signal" y2="8" x2="370" y1="0" x1="210"></line></g><g id="2_0"><g id="2_0_txt"><rect class="textbg" y="-12" x="213.05" height="12" width="153.9"></rect><text y="-3" x="290">same line as response, note</text></g><line class="returnvalue" y2="8" x2="210" y1="0" x1="370"></line></g><g id="2_1"><g id="2_1_txt"><rect class="textbg" y="-12" x="107.2" height="12" width="45.6"></rect><text style="fill:green;stroke:green;" y="-3" x="130">response</text></g><line style="stroke: green;" class="returnvalue" y2="8" x2="50" y1="0" x1="210"></line></g><g id="2_2"><path style="" class="box" d="M452,-14.5l147,0 l0,9 l9,0 m-9,-9 l9,9 l0,20 l-156,0 l0,-29 "></path><g id="2_2_txt"><a xlink:show="new" xlink:title="https://github.com/sverweij/mscgen_js" xlink:href="https://github.com/sverweij/mscgen_js"><rect class="textbg" y="-6" x="484.4" height="12" width="91.2"></rect><text style="fill:blue;stroke:blue;" y="3" x="530">note with a link</text></a></g></g><g id="3_0"><g id="3_0_txt"><rect class="textbg" y="-12" x="252.95" height="12" width="74.10000000000001"></rect><text y="-3" x="290">with emphasis</text></g><path class="emphasised" d="M210,0l1,0.05M210,-2 l160,8M210,2 l160,8M369,8l1,0.05"></path></g><g id="4_0"><g id="4_0_txt"><rect class="textbg" y="-18.6" x="372" height="12" width="136.8"></rect><text class="anchor-start" y="-9.6" x="372">emph selfie with arcskip</text></g><path class="emphasised" d="M370, -6.6 l53.333333333333336,0 l0,13.2 l0,66 l-53.333333333333336,0"></path></g><g id="5_0"><g id="5_0"><rect style="fill: gold; stroke:gold;" class="textbg" y="-6" x="178.85" height="12" width="222.3"></rect><text style="fill:red;stroke:red;" y="3" x="290">More magic stuff will be happening here</text></g></g><g id="6_0"><g id="6_0"></g></g><g id="7_0"><line style="stroke: red;" class="dotted" y2="0" x2="580" y1="0" x1="0"></line><g id="7_0_txt"><g id="7_0_txt"><rect class="textbg" y="-6" x="167.45" height="12" width="245.1"></rect><text style="fill:red;stroke:red;" y="3" x="290">When a signal appears to be lost, a calls d</text></g></g></g><g id="8_0"><g id="8_0_txt"><rect class="textbg" y="-12" x="90.05" height="12" width="39.9"></rect><text style="fill:blue;stroke:blue;" y="-3" x="110">lost:-/</text></g><line style="stroke: red;" class="lost" y2="8" x2="170" y1="0" x1="50"></line></g><g id="9_0"><g id="9_0_txt"><rect class="textbg" y="-12" x="267.2" height="12" width="45.6"></rect><text y="-3" x="290">log this</text></g><line class="method" y2="8" x2="530" y1="0" x1="50"></line></g><g id="10_0"><g id="10_0_txt"><rect style="fill: red; stroke:red;" class="textbg" y="-18.6" x="532" height="12" width="79.8"></rect><text style="fill:white;stroke:white;" class="anchor-start" y="-9.6" x="532">self reference</text></g><path style="stroke: green;" class="callback" d="M530, -6.6 l53.333333333333336,0 l0,13.2 l-53.333333333333336,0"></path></g><g id="11_0"><g id="11_0_txt"><rect class="textbg" y="-12" x="218.75" height="12" width="142.5"></rect><text y="-3" x="290">this message skips an arc</text></g><line class="returnvalue" y2="33" x2="50" y1="0" x1="530"></line></g><g id="12_0"><g id="12_0"></g></g><g id="13_0"><line style="stroke: green;" class="dotted" y2="0" x2="580" y1="0" x1="0"></line><g id="13_0_txt"><g id="13_0_txt"><rect class="textbg" y="-6" x="261.5" height="12" width="57"></rect><text style="fill:green;stroke:green;" y="3" x="290">Note tests</text></g></g></g><g id="14_0"><path style="" class="box" d="M292,-14.5l147,0 l0,9 l9,0 m-9,-9 l9,9 l0,20 l-156,0 l0,-29 "></path><g id="14_0_txt"><rect class="textbg" y="-6" x="338.65" height="12" width="62.7"></rect><text y="3" x="370">conference!</text></g></g><g id="14_1"><g id="14_1_txt"></g><line class="callback-both" y2="8" x2="530" y1="0" x1="370"></line></g><g id="14_2"><g id="14_2_txt"></g><line class="signal-both" y2="8" x2="210" y1="0" x1="370"></line></g><g id="15_0"><rect style="fill:black;stroke:yellow;" class="box" y="-14.5" x="-28" height="29" width="156"></rect><g id="15_0_txt"><rect style="fill: black; stroke:black;" class="textbg" y="-6" x="1.5499999999999972" height="12" width="96.9"></rect><text style="fill:red;stroke:red;" y="3" x="50">Black box example</text></g></g><g id="15_1"><rect style="fill:cyan;" class="box" ry="6" rx="6" y="-14.5" x="132" height="29" width="156"></rect><g id="15_1_txt"><rect style="fill: cyan; stroke:cyan;" class="textbg" y="-6" x="138.75" height="12" width="142.5"></rect><text y="3" x="210">This is an 'rbox' example</text></g></g><g id="15_2"><path style="fill:brown;stroke:orange;" class="box" d="M292,0 l3, -14.5l150,0l3,14.5l-3,14.5l-150,0 l-3,-14.5"></path><g id="15_2_txt"><rect style="fill: brown; stroke:brown;" class="textbg" y="-6" x="321.55" height="12" width="96.9"></rect><text style="fill:white;stroke:white;" y="3" x="370">This is an 'abox'</text></g></g><g id="15_3"><path style="fill:#0F0;stroke:green;" class="box" d="M452,-14.5l147,0 l0,9 l9,0 m-9,-9 l9,9 l0,20 l-156,0 l0,-29 "></path><g id="15_3_txt"><rect style="fill: #0F0; stroke:#0F0;" class="textbg" y="-6" x="481.55" height="12" width="96.9"></rect><text style="fill:green;stroke:green;" y="3" x="530">Example of a note</text></g></g><g id="16_0"><g id="16_0"></g></g><g id="17_0"><line style="stroke: brown;" class="dotted" y2="0" x2="580" y1="0" x1="0"></line><g id="17_0_txt"><g id="17_0_txt"><rect class="textbg" y="-6" x="247.25" height="12" width="85.5"></rect><text style="fill:purple;stroke:purple;" y="3" x="290">broadcast tests</text></g></g></g><g id="18_0bc0"><g id="18_0bc0_txt"></g><line style="stroke: fuchsia;" class="callback" y2="8" x2="50" y1="0" x1="210"></line></g><g id="18_0bc2"><g id="18_0bc2_txt"></g><line style="stroke: fuchsia;" class="callback" y2="8" x2="370" y1="0" x1="210"></line></g><g id="18_0bc3"><g id="18_0bc3_txt"></g><line style="stroke: fuchsia;" class="callback" y2="8" x2="530" y1="0" x1="210"></line></g><g id="19_0bc0"><g id="19_0bc0_txt"></g><line style="stroke: red;" class="lost" y2="8" x2="130" y1="0" x1="370"></line></g><g id="19_0bc1"><g id="19_0bc1_txt"></g><line style="stroke: red;" class="lost" y2="8" x2="250" y1="0" x1="370"></line></g><g id="19_0bc3"><g id="19_0bc3_txt"></g><line style="stroke: red;" class="lost" y2="8" x2="490" y1="0" x1="370"></line></g><g id="20_0"><g id="20_0"></g></g></g>
    </defs>
    <g id="watermark" transform="translate(0,0) scale(2.718281)">
        <path class="watermark" d="M 67.279915,165.99168 C 56.697966,154.98434 76.464052,150.20666 84.05267,150.95074 C 82.991213,141.4747 87.310274,130.68345 88.589115,123.45826 C 78.656703,115.49702 66.839527,124.24406 67.487856,135.93107 C 65.205455,151.54833 49.46974,148.56443 38.263706,147.04514 C 31.331291,148.29809 16.243736,152.34727 20.740578,139.99565 C 27.32412,127.45221 41.278136,134.66396 51.742654,133.65868 C 57.836984,127.39009 55.35898,115.58267 64.946486,110.48622 C 69.769725,102.49972 52.966717,94.156922 46.702322,98.029715 C 50.989027,108.31275 40.229889,122.87866 29.270437,115.50416 C 23.196529,106.68414 6.1469661,111.82686 5.2902978,101.02791 C 10.432067,89.817676 25.160135,96.893634 32.297214,100.44098 C 31.433617,86.371455 45.64931,78.97538 57.886456,85.283123 C 67.748373,91.66222 76.620886,97.921178 85.716829,86.999559 C 94.995445,80.154923 106.06377,77.011869 116.58727,72.735317 C 131.28267,63.315378 104.60634,56.038479 107.31751,44.697614 C 103.55998,30.349374 121.36931,20.421134 133.1682,27.234224 C 147.94549,34.476499 143.07259,52.331405 133.62042,61.321172 C 131.94885,66.161614 133.27449,69.430896 136.14432,70.541925 C 140.40886,72.192906 156.08797,71.685647 159.18444,69.095718 C 161.56257,67.10661 161.5095,63.017967 158.36459,58.105032 C 150.14911,49.698935 147.90653,35.465734 158.97904,28.129104 C 169.60413,20.410123 186.5055,28.104344 187.01368,41.448347 C 192.1545,56.418837 163.87903,58.561097 173.17104,72.874803 C 188.7097,75.800814 203.37769,82.749657 215.60126,92.695243 C 227.43241,97.342017 236.91198,79.144098 250.21203,84.765603 C 262.25407,83.410634 257.73959,109.81682 268.65012,97.506523 C 275.7378,90.962103 295.94089,101.20158 283.64465,107.47582 C 271.73656,108.68811 260.44342,123.17083 248.34649,115.12402 C 243.21122,109.43491 249.48441,91.948973 237.28589,99.974866 C 230.51158,101.20061 226.85194,105.49771 227.62658,109.4659 C 235.94157,117.53458 235.4413,118.22262 239.0652,129.51344 C 240.93916,134.52889 244.01338,137.65216 251.40818,133.42539 C 261.53033,128.21478 282.81973,142.93771 267.99533,150.38777 C 257.11516,142.97969 245.81099,151.60322 234.16007,148.11338 C 222.70165,142.6602 229.87787,118.36448 212.93401,121.0088 C 206.5704,120.26479 204.62294,123.06577 205.15767,126.57322 C 211.30184,134.10815 207.31109,141.06694 210.18254,149.22844 C 211.79626,152.3818 215.12413,153.8696 221.35204,151.77611 C 234.73303,154.91189 227.30062,172.53103 215.22522,165.68967 C 202.745,166.74782 191.51635,157.57644 195.93897,144.61167 C 194.07451,128.35725 177.18592,134.59496 166.90347,137.47062 C 149.1556,141.27353 130.67345,140.00798 113.34963,134.79839 C 102.55271,130.20464 95.662878,139.94894 99.162986,149.75385 C 98.834823,165.20607 81.270062,167.07473 69.420455,166.38665 L 67.279915,165.99168 L 67.279915,165.99168 z M 163.5,127.91214 C 178.54132,126.27137 192.92809,119.60183 204.6872,110.32136 C 216.83605,105.48612 208.64607,97.664519 200.47399,94.935373 C 165.49482,74.643933 118.38772,75.781115 85.745061,100.27243 C 76.028832,107.8489 96.346907,110.954 100.67438,116.67029 C 118.73433,129.40093 142.22911,131.07467 163.5,127.91214 z M 128.34268,49.889729 C 142.74726,42.142799 121.01379,23.07702 115.50021,39.07426 C 113.05918,46.335789 121.4841,53.872641 128.34268,49.889729 z M 120.69483,45.215279 C 114.68364,29.817796 140.18878,45.26269 121.89939,46.242829 L 120.69483,45.215279 L 120.69483,45.215279 z M 176.5,49.09716 C 191.11876,39.109075 163.02268,22.953336 161.16008,41.499132 C 159.94219,49.634038 170.66559,53.884312 176.5,49.09716 z M 166.78265,44.42234 C 163.60271,31.258348 183.40577,45.040309 170.27165,47.041088 C 168.73912,46.929312 167.38019,45.83444 166.78265,44.42234 z" id="path2384"></path>
    </g>
    <g transform="translate(43,3)" id="body">
    <g id="sequence"><use xlink:href="#a" y="0" x="0"></use><use xlink:href="#b" y="0" x="160"></use><use xlink:href="#entity c" y="0" x="320"></use><use xlink:href="#d" y="0" x="480"></use><use xlink:href="#arcrow" y="46.5" x="0"></use><use xlink:href="#arcrow" y="79.5" x="0"></use><use xlink:href="#0_0" y="79.5" x="0"></use><use xlink:href="#arcrow" y="112.5" x="0"></use><use xlink:href="#1_0" y="112.5" x="0"></use><use xlink:href="#arcrow" y="145.5" x="0"></use><use xlink:href="#2_0" y="145.5" x="0"></use><use xlink:href="#arcrow" y="145.5" x="0"></use><use xlink:href="#2_1" y="145.5" x="0"></use><use xlink:href="#arcrow" y="145.5" x="0"></use><use xlink:href="#arcrow" y="178.5" x="0"></use><use xlink:href="#3_0" y="178.5" x="0"></use><use xlink:href="#arcrow" y="211.5" x="0"></use><use xlink:href="#4_0" y="211.5" x="0"></use><use xlink:href="#arcrowomit" y="244.5" x="0"></use><use xlink:href="#5_0" y="244.5" x="0"></use><use xlink:href="#arcrow" y="277.5" x="0"></use><use xlink:href="#6_0" y="277.5" x="0"></use><use xlink:href="#arcrow" y="310.5" x="0"></use><use xlink:href="#7_0" y="310.5" x="0"></use><use xlink:href="#arcrow" y="343.5" x="0"></use><use xlink:href="#8_0" y="343.5" x="0"></use><use xlink:href="#arcrow" y="376.5" x="0"></use><use xlink:href="#9_0" y="376.5" x="0"></use><use xlink:href="#arcrow" y="409.5" x="0"></use><use xlink:href="#10_0" y="409.5" x="0"></use><use xlink:href="#arcrow" y="442.5" x="0"></use><use xlink:href="#11_0" y="442.5" x="0"></use><use xlink:href="#arcrow" y="475.5" x="0"></use><use xlink:href="#12_0" y="475.5" x="0"></use><use xlink:href="#arcrow" y="508.5" x="0"></use><use xlink:href="#13_0" y="508.5" x="0"></use><use xlink:href="#arcrow" y="541.5" x="0"></use><use xlink:href="#arcrow" y="541.5" x="0"></use><use xlink:href="#14_1" y="541.5" x="0"></use><use xlink:href="#arcrow" y="541.5" x="0"></use><use xlink:href="#14_2" y="541.5" x="0"></use><use xlink:href="#arcrow" y="574.5" x="0"></use><use xlink:href="#arcrow" y="574.5" x="0"></use><use xlink:href="#arcrow" y="574.5" x="0"></use><use xlink:href="#arcrow" y="574.5" x="0"></use><use xlink:href="#arcrow" y="607.5" x="0"></use><use xlink:href="#16_0" y="607.5" x="0"></use><use xlink:href="#arcrow" y="640.5" x="0"></use><use xlink:href="#17_0" y="640.5" x="0"></use><use xlink:href="#arcrow" y="673.5" x="0"></use><use xlink:href="#18_0bc0" y="673.5" x="0"></use><use xlink:href="#18_0bc2" y="673.5" x="0"></use><use xlink:href="#18_0bc3" y="673.5" x="0"></use><g id="18_0_txt"><rect class="textbg" y="661.5" x="213.05" height="12" width="153.9"></rect><text y="670.5" x="290">This is a broadcast message</text></g><use xlink:href="#arcrow" y="706.5" x="0"></use><use xlink:href="#19_0bc0" y="706.5" x="0"></use><use xlink:href="#19_0bc1" y="706.5" x="0"></use><use xlink:href="#19_0bc3" y="706.5" x="0"></use><g id="19_0_txt"><rect class="textbg" y="694.5" x="190.25" height="12" width="199.5"></rect><text style="fill:red;stroke:red;" y="703.5" x="290">Broadcast, but lost to everyone :-(</text></g><use xlink:href="#arcrowomit" y="739.5" x="0"></use><use xlink:href="#20_0" y="739.5" x="0"></use></g>
    <g id="notelayer"><use xlink:href="#2_2" y="145.5" x="0"></use><use xlink:href="#14_0" y="541.5" x="0"></use><use xlink:href="#15_0" y="574.5" x="0"></use><use xlink:href="#15_1" y="574.5" x="0"></use><use xlink:href="#15_2" y="574.5" x="0"></use><use xlink:href="#15_3" y="574.5" x="0"></use></g>
    </g>
</svg>

