<svg height="386" width="834" version="1.1" xmlns="http://www.w3.org/2000/svg" xmlns:xlink="http://www.w3.org/1999/xlink" id="svg_output">
        
    <defs>
    <style type="text/css">
        svg {
            font-family: Helvetica, sans-serif;
            font-size: 9pt;
            background-color: white;
            stroke : black;
            color  : black;
        }
        rect {
            fill: none;
            stroke: inherit;
            stroke-width: 2;
        }
        rect.textbg {
            fill:white;
            stroke:white;
        }
        line {
            stroke: inherit;
            stroke-width: 2;
        }
        .arcrowomit {
            stroke-dasharray: 2,2;
        }
        text {
            color: inherit;
            stroke: inherit;
            text-anchor: middle;
            stroke-width:0.1; /* makes font seem more crisp. Overrides color to be black */
        }
        text.entity {
            text-decoration : underline;
        }
        text.anchor-start {
            text-anchor: start;
        }
        .watermark {
            font-size : 4.3em;
            fill: #FCFCFC;
            stroke: #FCFCFC;
        }
        path {
            stroke : inherit;
            stroke-width : 2;
            fill : none;
        }
        .dotted {
            stroke-dasharray: 5,2;
        }
        .arrow-marker {
            overflow:visible;
        }
        .arrow-style {
            stroke-dasharray : none;
            stroke-width : 1;
        }
        .filled {
            stroke:inherit;
            fill:black; /* no-inherit */
        }
        .signal {
            marker-end : url(#signal);
        }
        .signal-both {
            marker-end : url(#signal);
            marker-start : url(#signal-l);
        }
        .method {
            marker-end : url(#method);
        }
        .method-both {
            marker-end : url(#method);
            marker-start : url(#method-l);
        }
        .returnvalue {
            stroke-dasharray: 5,2;
            marker-end : url(#returnvalue);
        }
        .returnvalue-both {
            stroke-dasharray: 5,2;
            marker-end : url(#returnvalue);
            marker-start : url(#returnvalue-l);
        }
        .callback {
            marker-end : url(#callback);
        }
        .callback-both {
            marker-end : url(#callback);
            marker-start : url(#callback-l);
        }
        .emphasised {
            /* define double line */
            marker-end : url(#method);
        }
        .emphasised-both {
            /* define double line */
            marker-end : url(#method);
            marker-start : url(#method-l);
        }
        .lost {
            marker-end : url(#lost);
        }
        .arcrowomit {
            stroke-dasharray: 2,2;
        }
        .box {
            fill: #ffc; /* no-inherit */
            opacity: 0.9;
        }
        .boxtext, .arctext {
            font-size: 0.8em;
            text-anchor: middle;
        }
        .comment {
            stroke-dasharray: 5,2;
        }
    </style>
    <!-- arrow heads -->
    <marker orient="auto" id="signal" class="arrow-marker">
       <path d="M0,0 l-8,2" class="arrow-style"></path>
    </marker>
    <marker orient="auto" id="signal-l" class="arrow-marker">
       <path d="M0,0 l8,2" class="arrow-style"></path>
    </marker>
    <marker orient="auto" id="method" class="arrow-marker">
       <polygon points="-8,2 0,0, -8,-2" class="filled arrow-style"></polygon>
    </marker>
    <marker orient="auto" id="method-l" class="arrow-marker">
       <polygon points="8,2 0,0, 8,-2" class="filled arrow-style"></polygon>
    </marker>
    <marker orient="auto" id="returnvalue" class="arrow-marker">
       <path d="M0,0 l-8,2 M0,0 l-8,-2" class="arrow-style"></path>
    </marker>
    <marker orient="auto" id="returnvalue-l" class="arrow-marker">
       <path d="M0,0 l8,2 M0,0 l8,-2" class="arrow-style"></path>
    </marker>
    <marker orient="auto" id="callback" class="arrow-marker">
       <path d="M0,0 l-8,2 M0,0 l-8,-2" class="arrow-style"></path>
    </marker>
    <marker orient="auto" id="callback-l" class="arrow-marker">
       <path d="M0,0 l8,2 M0,0 l8,-2" class="arrow-style"></path>
    </marker>
    <marker orient="auto" id="emphasised" class="arrow-marker">
       <path d="M0,0 l-8,2" class="arrow-style"></path>
    </marker>
    <marker orient="auto" id="emphasised-l" class="arrow-marker">
       <path d="M0,0 l8,2" class="arrow-style"></path>
    </marker>
    <marker orient="auto" id="lost" class="arrow-marker">
       <path d="M-2.5,-2.5 L2.5,2.5 M-2.5,2.5 L2.5,-2.5" class="arrow-style"></path>
    </marker>

    <!-- entity and arc definitions -->
    <g id="defs"><g id="a"><rect height="30" width="100"></rect><text class="entity" y="19" x="50">entity a</text></g><g id="b"><rect height="30" width="100"></rect><text class="entity" y="19" x="50">b</text></g><g id="entity c"><rect height="30" width="100"></rect><text class="entity" y="19" x="50">entity c</text></g><g id="d"><rect height="30" width="100"></rect><text class="entity" y="19" x="50">d</text></g><g id="*"><rect height="30" width="100"></rect><text class="entity" y="19" x="50">*</text></g><g id="arcrow"><line class="arcrow" y2="12.5" x2="50" y1="-12.5" x1="50"></line><line class="arcrow" y2="12.5" x2="210" y1="-12.5" x1="210"></line><line class="arcrow" y2="12.5" x2="370" y1="-12.5" x1="370"></line><line class="arcrow" y2="12.5" x2="530" y1="-12.5" x1="530"></line><line class="arcrow" y2="12.5" x2="690" y1="-12.5" x1="690"></line></g><g id="arcrowomit"><line class="arcrowomit" y2="12.5" x2="50" y1="-12.5" x1="50"></line><line class="arcrowomit" y2="12.5" x2="210" y1="-12.5" x1="210"></line><line class="arcrowomit" y2="12.5" x2="370" y1="-12.5" x1="370"></line><line class="arcrowomit" y2="12.5" x2="530" y1="-12.5" x1="530"></line><line class="arcrowomit" y2="12.5" x2="690" y1="-12.5" x1="690"></line></g><g id="0_0"><line class="callback" y2="0" x2="210" y1="0" x1="50"></line><text y="-4" x="130">do magic</text></g><g id="1_0"><line class="signal" y2="0" x2="370" y1="0" x1="210"></line><text y="-4" x="290">doMagic()</text></g><g id="2_0"><line class="returnvalue" y2="0" x2="210" y1="0" x1="370"></line></g><g id="2_1"><line class="returnvalue" y2="0" x2="50" y1="0" x1="210"></line></g><g id="2_2"><path class="box" d="M452,-10.5l147,0 l0,9 l9,0 m-9,-9 l9,9 l0,12 l-156,0 l0,-21 "></path><text y="6.5" x="530">note</text></g><g id="5_0"><line class="lost" y2="0" x2="170" y1="0" x1="50"></line><text y="-4" x="110">lost:-/</text></g><g id="6_0"><line class="method" y2="0" x2="530" y1="0" x1="50"></line><text y="-4" x="290">log this</text></g><g id="7_0"><path class="callback" d="M530,-5 l40,0 l0,10 l-40,0"></path></g><g id="8_0"><path class="box" d="M292,-10.5l147,0 l0,9 l9,0 m-9,-9 l9,9 l0,12 l-156,0 l0,-21 "></path><text y="6.5" x="370">conference!</text></g><g id="8_1"><line class="callback-both" y2="0" x2="530" y1="0" x1="370"></line></g><g id="8_2"><line class="signal-both" y2="0" x2="210" y1="0" x1="370"></line></g><g id="9_0"><rect class="box" y="-10.5" x="-28" height="21" width="156"></rect><text y="6.5" x="50">This is a 'box' example</text></g><g id="9_1"><rect class="box" ry="6" rx="6" y="-10.5" x="132" height="21" width="156"></rect><text y="6.5" x="210">This is an 'rbox' example</text></g><g id="9_2"><path class="box" d="M292,0 l3, -10.5l150,0l3,10.5l-3,10.5l-150,0 l-3,-10.5"></path><text y="6.5" x="370">This is an 'abox' example</text></g><g id="9_3"><path class="box" d="M452,-10.5l147,0 l0,9 l9,0 m-9,-9 l9,9 l0,12 l-156,0 l0,-21 "></path><text y="6.5" x="530">This is an example of a note</text></g><g id="11_0bc0"><line class="callback" y2="0" x2="50" y1="0" x1="210"></line></g><g id="11_0bc2"><line class="callback" y2="0" x2="370" y1="0" x1="210"></line></g><g id="11_0bc3"><line class="callback" y2="0" x2="530" y1="0" x1="210"></line></g><g id="11_0bc4"><line class="callback" y2="0" x2="690" y1="0" x1="210"></line></g><g id="12_0bc0"><line class="lost" y2="0" x2="130" y1="0" x1="370"></line></g><g id="12_0bc1"><line class="lost" y2="0" x2="250" y1="0" x1="370"></line></g><g id="12_0bc3"><line class="lost" y2="0" x2="490" y1="0" x1="370"></line></g><g id="12_0bc4"><line class="lost" y2="0" x2="610" y1="0" x1="370"></line></g></g>
    </defs>
    <g id="watermark" transform="translate(0,0) scale(2.718281)">
        <path class="watermark" d="M 67.279915,165.99168 C 56.697966,154.98434 76.464052,150.20666 84.05267,150.95074 C 82.991213,141.4747 87.310274,130.68345 88.589115,123.45826 C 78.656703,115.49702 66.839527,124.24406 67.487856,135.93107 C 65.205455,151.54833 49.46974,148.56443 38.263706,147.04514 C 31.331291,148.29809 16.243736,152.34727 20.740578,139.99565 C 27.32412,127.45221 41.278136,134.66396 51.742654,133.65868 C 57.836984,127.39009 55.35898,115.58267 64.946486,110.48622 C 69.769725,102.49972 52.966717,94.156922 46.702322,98.029715 C 50.989027,108.31275 40.229889,122.87866 29.270437,115.50416 C 23.196529,106.68414 6.1469661,111.82686 5.2902978,101.02791 C 10.432067,89.817676 25.160135,96.893634 32.297214,100.44098 C 31.433617,86.371455 45.64931,78.97538 57.886456,85.283123 C 67.748373,91.66222 76.620886,97.921178 85.716829,86.999559 C 94.995445,80.154923 106.06377,77.011869 116.58727,72.735317 C 131.28267,63.315378 104.60634,56.038479 107.31751,44.697614 C 103.55998,30.349374 121.36931,20.421134 133.1682,27.234224 C 147.94549,34.476499 143.07259,52.331405 133.62042,61.321172 C 131.94885,66.161614 133.27449,69.430896 136.14432,70.541925 C 140.40886,72.192906 156.08797,71.685647 159.18444,69.095718 C 161.56257,67.10661 161.5095,63.017967 158.36459,58.105032 C 150.14911,49.698935 147.90653,35.465734 158.97904,28.129104 C 169.60413,20.410123 186.5055,28.104344 187.01368,41.448347 C 192.1545,56.418837 163.87903,58.561097 173.17104,72.874803 C 188.7097,75.800814 203.37769,82.749657 215.60126,92.695243 C 227.43241,97.342017 236.91198,79.144098 250.21203,84.765603 C 262.25407,83.410634 257.73959,109.81682 268.65012,97.506523 C 275.7378,90.962103 295.94089,101.20158 283.64465,107.47582 C 271.73656,108.68811 260.44342,123.17083 248.34649,115.12402 C 243.21122,109.43491 249.48441,91.948973 237.28589,99.974866 C 230.51158,101.20061 226.85194,105.49771 227.62658,109.4659 C 235.94157,117.53458 235.4413,118.22262 239.0652,129.51344 C 240.93916,134.52889 244.01338,137.65216 251.40818,133.42539 C 261.53033,128.21478 282.81973,142.93771 267.99533,150.38777 C 257.11516,142.97969 245.81099,151.60322 234.16007,148.11338 C 222.70165,142.6602 229.87787,118.36448 212.93401,121.0088 C 206.5704,120.26479 204.62294,123.06577 205.15767,126.57322 C 211.30184,134.10815 207.31109,141.06694 210.18254,149.22844 C 211.79626,152.3818 215.12413,153.8696 221.35204,151.77611 C 234.73303,154.91189 227.30062,172.53103 215.22522,165.68967 C 202.745,166.74782 191.51635,157.57644 195.93897,144.61167 C 194.07451,128.35725 177.18592,134.59496 166.90347,137.47062 C 149.1556,141.27353 130.67345,140.00798 113.34963,134.79839 C 102.55271,130.20464 95.662878,139.94894 99.162986,149.75385 C 98.834823,165.20607 81.270062,167.07473 69.420455,166.38665 L 67.279915,165.99168 L 67.279915,165.99168 z M 163.5,127.91214 C 178.54132,126.27137 192.92809,119.60183 204.6872,110.32136 C 216.83605,105.48612 208.64607,97.664519 200.47399,94.935373 C 165.49482,74.643933 118.38772,75.781115 85.745061,100.27243 C 76.028832,107.8489 96.346907,110.954 100.67438,116.67029 C 118.73433,129.40093 142.22911,131.07467 163.5,127.91214 z M 128.34268,49.889729 C 142.74726,42.142799 121.01379,23.07702 115.50021,39.07426 C 113.05918,46.335789 121.4841,53.872641 128.34268,49.889729 z M 120.69483,45.215279 C 114.68364,29.817796 140.18878,45.26269 121.89939,46.242829 L 120.69483,45.215279 L 120.69483,45.215279 z M 176.5,49.09716 C 191.11876,39.109075 163.02268,22.953336 161.16008,41.499132 C 159.94219,49.634038 170.66559,53.884312 176.5,49.09716 z M 166.78265,44.42234 C 163.60271,31.258348 183.40577,45.040309 170.27165,47.041088 C 168.73912,46.929312 167.38019,45.83444 166.78265,44.42234 z" id="path2384"></path>
    </g>
    <g transform="translate(43,3)" id="body">
    <g id="sequence"><use xlink:href="#a" y="0" x="0"></use><use xlink:href="#b" y="0" x="160"></use><use xlink:href="#entity c" y="0" x="320"></use><use xlink:href="#d" y="0" x="480"></use><use xlink:href="#*" y="0" x="640"></use><use xlink:href="#arcrow" y="42.5" x="0"></use><use xlink:href="#arcrow" y="67.5" x="0"></use><use xlink:href="#0_0" y="67.5" x="0"></use><use xlink:href="#arcrow" y="92.5" x="0"></use><use xlink:href="#1_0" y="92.5" x="0"></use><use xlink:href="#arcrow" y="117.5" x="0"></use><use xlink:href="#2_0" y="117.5" x="0"></use><use xlink:href="#arcrow" y="117.5" x="0"></use><use xlink:href="#2_1" y="117.5" x="0"></use><use xlink:href="#arcrow" y="117.5" x="0"></use><use xlink:href="#arcrowomit" y="142.5" x="0"></use><rect class="textbg" y="138.5" x="287.35" height="8" width="165.3"></rect><text y="146.5" x="370">More magic stuff happens here</text><use xlink:href="#arcrow" y="167.5" x="0"></use><line class="dotted" y2="167.5" x2="740" y1="167.5" x1="0"></line><rect class="textbg" y="163.5" x="247.45" height="8" width="245.1"></rect><text y="171.5" x="370">When a signal appears to be lost, a calls d</text><use xlink:href="#arcrow" y="192.5" x="0"></use><use xlink:href="#5_0" y="192.5" x="0"></use><use xlink:href="#arcrow" y="217.5" x="0"></use><use xlink:href="#6_0" y="217.5" x="0"></use><use xlink:href="#arcrow" y="242.5" x="0"></use><use xlink:href="#7_0" y="242.5" x="0"></use><use xlink:href="#arcrow" y="267.5" x="0"></use><use xlink:href="#arcrow" y="267.5" x="0"></use><use xlink:href="#8_1" y="267.5" x="0"></use><use xlink:href="#arcrow" y="267.5" x="0"></use><use xlink:href="#8_2" y="267.5" x="0"></use><use xlink:href="#arcrow" y="292.5" x="0"></use><use xlink:href="#arcrow" y="292.5" x="0"></use><use xlink:href="#arcrow" y="292.5" x="0"></use><use xlink:href="#arcrow" y="292.5" x="0"></use><use xlink:href="#arcrow" y="317.5" x="0"></use><rect class="textbg" y="313.5" x="370" height="8" width="0"></rect><text y="321.5" x="370"></text><use xlink:href="#arcrow" y="342.5" x="0"></use><use xlink:href="#11_0bc0" y="342.5" x="0"></use><use xlink:href="#11_0bc2" y="342.5" x="0"></use><use xlink:href="#11_0bc3" y="342.5" x="0"></use><use xlink:href="#11_0bc4" y="342.5" x="0"></use><text y="338.5" x="370">This is a broadcast message</text><use xlink:href="#arcrow" y="367.5" x="0"></use><use xlink:href="#12_0bc0" y="367.5" x="0"></use><use xlink:href="#12_0bc1" y="367.5" x="0"></use><use xlink:href="#12_0bc3" y="367.5" x="0"></use><use xlink:href="#12_0bc4" y="367.5" x="0"></use><text y="363.5" x="370">Broadcast, but lost to everyone :-(</text></g>
    <g id="notelayer"><use xlink:href="#2_2" y="117.5" x="0"></use><use xlink:href="#8_0" y="267.5" x="0"></use><use xlink:href="#9_0" y="292.5" x="0"></use><use xlink:href="#9_1" y="292.5" x="0"></use><use xlink:href="#9_2" y="292.5" x="0"></use><use xlink:href="#9_3" y="292.5" x="0"></use></g>
    </g>
</svg>

