<svg height="422" width="514" xmlns:xlink="http://www.w3.org/1999/xlink" xmlns="http://www.w3.org/2000/svg" id="svg_output" version="1.1"><desc id="msc_source"># Generated by mscgen_js http://sverweij.github.io/mscgen_js
msc {
  a [ label="Entity A", textbgcolor="red", textcolor="white" ],
  b [ label="Entity B", textbgcolor="yellow" ],
  c [ label="Entity C", textbgcolor="blue", textcolor="yellow" ];

  a-&gt;b [ label = "ab()" ] ;
  b-&gt;c [ label = "bc(TRUE)"];
  c=&gt;&gt;c [ label = "process(1)" ];
  b&lt;&lt;=c [ label = "callback()", arcskip="1"];
  |||;
  ---  [ label = "If more to run", ID="*" ];
  a-&gt;a [ label = "next()"];
  a=&gt;c [ label = "ac1()"];
  b&lt;&lt;c [ label = "cb(true)", textbgcolor="lime"];
  b-&gt;b [ label = "stalled(...)"];
  a&lt;&lt;b [ label = "ab() = FALSE", textcolor="red", linecolor="red"], 
  c note c [ label="Just a note ...", linecolor="green", 
            textcolor="green", textbgcolor="lime" ];
}</desc><defs><style type="text/css">svg {     font-family: Helvetica, sans-serif;     font-size: 9pt;     background-color: white;     stroke : black;     color  : black; } rect {     fill: none;     stroke: black;     stroke-width: 2; } .bglayer {     fill:white;     stroke: white;     stroke-width: 0; } rect.textbg {     fill:white;     stroke:white;     stroke-width:0;     opacity: 0.9; } line {     stroke: black;     stroke-width: 2; } .arcrowomit {     stroke-dasharray: 2,2; } text {     color: inherit;     stroke: none;     text-anchor: middle; } text.entity {     text-decoration : underline; } text.anchor-start {     text-anchor: start; } path {     stroke : black;     stroke-width : 2;     fill : none; } .dotted {     stroke-dasharray: 5,2; } .arrow-marker {     overflow:visible; } .arrow-style { 	stroke : black;     stroke-dasharray : 100,1; /* 'none' should work, but doesn't in webkit */     stroke-width : 1; } .filled {     stroke:inherit;     fill:black; /* no-inherit */ } .signal {     marker-end : url(#signal); } .signal-both {     marker-end : url(#signal);     marker-start : url(#signal-l); } .method {     marker-end : url(#method); } .method-both {     marker-end : url(#method);     marker-start : url(#method-l); } .returnvalue {     stroke-dasharray: 5,2;     marker-end : url(#callback); } .returnvalue-both {     stroke-dasharray: 5,2;     marker-end : url(#callback);     marker-start : url(#callback-l); } .callback {     marker-end : url(#callback); } .callback-both {     marker-end : url(#callback);     marker-start : url(#callback-l); } .emphasised {     marker-end : url(#method); } .emphasised-both {     marker-end : url(#method);     marker-start : url(#method-l); } .lost {     marker-end : url(#lost); } .arcrowomit {     stroke-dasharray: 2,2; } .box {     /* fill: #ffc;  no-inherit */     fill : white;     opacity: 0.9; } .boxtext, .arctext {     font-size: 0.8em;     text-anchor: middle; } .comment {     stroke-dasharray: 5,2; }</style><marker markerHeight="10" markerWidth="10" markerUnits="strokeWidth" refY="3" refX="9" viewBox="0 0 10 10" class="arrow-marker" id="signal" orient="auto"><path class="arrow-style" d="M 9 3 l -8 2"></path></marker><marker markerHeight="10" markerWidth="10" markerUnits="strokeWidth" refY="3" refX="9" viewBox="0 0 10 10" class="arrow-marker" id="signal-l" orient="auto"><path class="arrow-style" d="M 9 3 l 8 2"></path></marker><marker markerHeight="10" markerWidth="10" markerUnits="strokeWidth" refY="3" refX="9" viewBox="0 0 10 10" class="arrow-marker" id="method" orient="auto"><polygon class="filled arrow-style" points="1,1 9,3 1,5"></polygon></marker><marker markerHeight="10" markerWidth="10" markerUnits="strokeWidth" refY="3" refX="9" viewBox="0 0 10 10" class="arrow-marker" id="method-l" orient="auto"><polygon class="filled arrow-style" points="17,1 9,3 17,5"></polygon></marker><marker markerHeight="10" markerWidth="10" markerUnits="strokeWidth" refY="3" refX="9" viewBox="0 0 10 10" class="arrow-marker" id="callback" orient="auto"><path class="arrow-style" d="M 1 1 l 8 2 l -8 2"></path></marker><marker markerHeight="10" markerWidth="10" markerUnits="strokeWidth" refY="3" refX="9" viewBox="0 0 10 10" class="arrow-marker" id="callback-l" orient="auto"><path class="arrow-style" d="M 17 1 l -8 2 l 8 2"></path></marker><marker markerHeight="10" markerWidth="10" markerUnits="strokeWidth" refY="3" refX="9" viewBox="0 0 10 10" class="arrow-marker" id="lost" orient="auto"><path class="arrow-style" d="M6.5,-0.5 L11.5,5.5 M6.5,5.5 L11.5,-0.5"></path></marker><g id="defs"><g id="a"><rect style="fill:red;" height="32" width="100"></rect><g id="a_txt"><rect style="fill: red; stroke:red;" class="textbg" y="11" x="27.2" height="12" width="45.6"></rect><text style="fill:white;" class="entity" y="20" x="50"><tspan>Entity A</tspan></text></g></g><g id="b"><rect style="fill:yellow;" height="32" width="100"></rect><g id="b_txt"><rect style="fill: yellow; stroke:yellow;" class="textbg" y="11" x="27.2" height="12" width="45.6"></rect><text class="entity" y="20" x="50"><tspan>Entity B</tspan></text></g></g><g id="c"><rect style="fill:blue;" height="32" width="100"></rect><g id="c_txt"><rect style="fill: blue; stroke:blue;" class="textbg" y="11" x="27.2" height="12" width="45.6"></rect><text style="fill:yellow;" class="entity" y="20" x="50"><tspan>Entity C</tspan></text></g></g><g id="arcrow"><line class="arcrow" y2="16" x2="50" y1="-16" x1="50"></line><line class="arcrow" y2="16" x2="210" y1="-16" x1="210"></line><line class="arcrow" y2="16" x2="370" y1="-16" x1="370"></line></g><g id="arcrowomit"><line class="arcrowomit" y2="16" x2="50" y1="-16" x1="50"></line><line class="arcrowomit" y2="16" x2="210" y1="-16" x1="210"></line><line class="arcrowomit" y2="16" x2="370" y1="-16" x1="370"></line></g><g id="0_0"><line class="signal" y2="0" x2="210" y1="0" x1="50"></line><g id="0_0_txt"><rect class="textbg" y="-13" x="118.6" height="12" width="22.8"></rect><text y="-4" x="130"><tspan>ab()</tspan></text><rect class="textbg" y="1" x="130" height="12" width="0"></rect><text y="10" x="130"><tspan></tspan></text></g></g><g id="1_0"><line class="signal" y2="0" x2="370" y1="0" x1="210"></line><g id="1_0_txt"><rect class="textbg" y="-13" x="267.2" height="12" width="45.6"></rect><text y="-4" x="290"><tspan>bc(TRUE)</tspan></text><rect class="textbg" y="1" x="290" height="12" width="0"></rect><text y="10" x="290"><tspan></tspan></text></g></g><g id="2_0"><g id="selfie"><path class="callback" d="M370, -6.4 l53.333333333333336,0 l0,12.8 l-53.333333333333336,0"></path></g><g id="2_0_txt"><rect class="textbg" y="-19.4" x="372" height="12" width="57"></rect><text class="anchor-start" y="-10.4" x="372"><tspan>process(1)</tspan></text><rect class="textbg" y="-5.399999999999999" x="372" height="12" width="0"></rect><text class="anchor-start" y="3.5999999999999996" x="372"><tspan></tspan></text></g></g><g id="3_0"><line class="callback" y2="32" x2="210" y1="0" x1="370"></line><g id="3_0_txt"><rect class="textbg" y="-13" x="261.5" height="12" width="57"></rect><text y="-4" x="290"><tspan>callback()</tspan></text><rect class="textbg" y="1" x="290" height="12" width="0"></rect><text y="10" x="290"><tspan></tspan></text></g></g><g id="4_0"><g id="4_0"></g></g><g id="5_0"><line class="dotted" y2="0" x2="420" y1="0" x1="0"></line><g id="5_0_txt"><g id="5_0_txt"><rect class="textbg" y="-7" x="170.1" height="12" width="79.8"></rect><text y="2" x="210"><tspan>If more to run</tspan><tspan style="vertical-align : text-top;font-size: 0.7em; text-anchor: start;"> [*]</tspan></text></g></g></g><g id="6_0"><g id="selfie"><path class="signal" d="M50, -6.4 l53.333333333333336,0 l0,12.8 l-53.333333333333336,0"></path></g><g id="6_0_txt"><rect class="textbg" y="-19.4" x="52" height="12" width="34.2"></rect><text class="anchor-start" y="-10.4" x="52"><tspan>next()</tspan></text><rect class="textbg" y="-5.399999999999999" x="52" height="12" width="0"></rect><text class="anchor-start" y="3.5999999999999996" x="52"><tspan></tspan></text></g></g><g id="7_0"><line class="method" y2="0" x2="370" y1="0" x1="50"></line><g id="7_0_txt"><rect class="textbg" y="-13" x="195.75" height="12" width="28.5"></rect><text y="-4" x="210"><tspan>ac1()</tspan></text><rect class="textbg" y="1" x="210" height="12" width="0"></rect><text y="10" x="210"><tspan></tspan></text></g></g><g id="8_0"><line class="returnvalue" y2="0" x2="210" y1="0" x1="370"></line><g id="8_0_txt"><rect style="fill: lime; stroke:lime;" class="textbg" y="-13" x="267.2" height="12" width="45.6"></rect><text y="-4" x="290"><tspan>cb(true)</tspan></text><rect style="fill: lime; stroke:lime;" class="textbg" y="1" x="290" height="12" width="0"></rect><text y="10" x="290"><tspan></tspan></text></g></g><g id="9_0"><g id="selfie"><path class="signal" d="M210, -6.4 l53.333333333333336,0 l0,12.8 l-53.333333333333336,0"></path></g><g id="9_0_txt"><rect class="textbg" y="-19.4" x="212" height="12" width="68.4"></rect><text class="anchor-start" y="-10.4" x="212"><tspan>stalled(...)</tspan></text><rect class="textbg" y="-5.399999999999999" x="212" height="12" width="0"></rect><text class="anchor-start" y="3.5999999999999996" x="212"><tspan></tspan></text></g></g><g id="10_0"><line style="stroke: red;" class="returnvalue" y2="0" x2="50" y1="0" x1="210"></line><g id="10_0_txt"><rect class="textbg" y="-13" x="95.8" height="12" width="68.4"></rect><text style="fill:red;" y="-4" x="130"><tspan>ab() = FALSE</tspan></text><rect class="textbg" y="1" x="130" height="12" width="0"></rect><text style="fill:red;" y="10" x="130"><tspan></tspan></text></g></g><g id="10_1"><path style="fill:lime;stroke:green;" class="box" d="M292,-14l147,0 l0,9 l9,0 m-9,-9 l9,9 l0,19 l-156,0 l0,-28 "></path><g id="10_1_txt"><rect style="fill: lime; stroke:lime;" class="textbg" y="-7" x="327.25" height="12" width="85.5"></rect><text style="fill:green;" y="2" x="370"><tspan>Just a note ...</tspan></text></g></g></g></defs><g transform="translate(43,3) scale(1,1)" id="body"><g id="__background"><rect class="bglayer" y="-3" x="-43" height="422" width="514"></rect></g><g id="sequence"><use xlink:href="#a" y="0" x="0"></use><use xlink:href="#b" y="0" x="160"></use><use xlink:href="#c" y="0" x="320"></use><use xlink:href="#arcrow" y="48" x="0"></use><use xlink:href="#arcrow" y="80" x="0"></use><use xlink:href="#0_0" y="80" x="0"></use><use xlink:href="#arcrow" y="112" x="0"></use><use xlink:href="#1_0" y="112" x="0"></use><use xlink:href="#arcrow" y="144" x="0"></use><use xlink:href="#2_0" y="144" x="0"></use><use xlink:href="#arcrow" y="176" x="0"></use><use xlink:href="#3_0" y="176" x="0"></use><use xlink:href="#arcrow" y="208" x="0"></use><use xlink:href="#4_0" y="208" x="0"></use><use xlink:href="#arcrow" y="240" x="0"></use><use xlink:href="#5_0" y="240" x="0"></use><use xlink:href="#arcrow" y="272" x="0"></use><use xlink:href="#6_0" y="272" x="0"></use><use xlink:href="#arcrow" y="304" x="0"></use><use xlink:href="#7_0" y="304" x="0"></use><use xlink:href="#arcrow" y="336" x="0"></use><use xlink:href="#8_0" y="336" x="0"></use><use xlink:href="#arcrow" y="368" x="0"></use><use xlink:href="#9_0" y="368" x="0"></use><use xlink:href="#arcrow" y="400" x="0"></use><use xlink:href="#10_0" y="400" x="0"></use><use xlink:href="#arcrow" y="400" x="0"></use></g><g id="notelayer"><use xlink:href="#10_1" y="400" x="0"></use></g></g></svg>