<?xml version="1.0" encoding="UTF-8" standalone="no"?>
<!DOCTYPE svg PUBLIC "-//W3C//DTD SVG 1.1//EN"
 "http://www.w3.org/Graphics/SVG/1.1/DTD/svg11.dtd">
<!-- Generated by graphviz version 2.34.0 (20130917.2120)
 -->
<!-- Title: %3 Pages: 1 -->
<svg width="1790pt" height="127pt"
 viewBox="0.00 0.00 1790.00 127.00" xmlns="http://www.w3.org/2000/svg" xmlns:xlink="http://www.w3.org/1999/xlink">
<g id="graph0" class="graph" transform="scale(1 1) rotate(0) translate(4 123)">
<title>%3</title>
<polygon fill="white" stroke="white" points="-4,4 -4,-123 1786,-123 1786,4 -4,4"/>
<!-- black -->
<g id="node1" class="node"><title>black</title>
<ellipse fill="#000000" stroke="black" cx="27" cy="-19" rx="27" ry="18"/>
<text text-anchor="middle" x="27" y="-15.4" font-family="Helvetica,sans-Serif" font-size="9.00" fill="white">black</text>
</g>
<!-- white -->
<g id="node11" class="node"><title>white</title>
<ellipse fill="#ffffff" stroke="black" cx="189" cy="-46" rx="27" ry="18"/>
<text text-anchor="middle" x="189" y="-42.4" font-family="Helvetica,sans-Serif" font-size="9.00" fill="#000000">white</text>
</g>
<!-- black&#45;&#45;white -->
<g id="edge2" class="edge"><title>black&#45;&#45;white</title>
<path fill="none" stroke="black" d="M53.3525,-23.2782C80.1523,-27.8007 122.625,-34.968 152.694,-40.0421"/>
<polygon fill="#000000" stroke="black" points="162.766,-41.7418 152.157,-44.515 157.836,-40.9098 152.906,-40.0777 152.906,-40.0777 152.906,-40.0777 157.836,-40.9098 153.654,-35.6405 162.766,-41.7418 162.766,-41.7418"/>
<text text-anchor="middle" x="108" y="-40.8" font-family="Helvetica,sans-Serif" font-size="9.00" fill="white">(2) black and blue</text>
</g>
<!-- darkred -->
<g id="node2" class="node"><title>darkred</title>
<ellipse fill="#aa0000" stroke="black" cx="372" cy="-46" rx="27.0459" ry="18"/>
<text text-anchor="middle" x="372" y="-42.4" font-family="Helvetica,sans-Serif" font-size="9.00" fill="#ffff00">darkred</text>
</g>
<!-- pinky -->
<g id="node10" class="node"><title>pinky</title>
<ellipse fill="#ffaaff" stroke="black" cx="545" cy="-46" rx="27" ry="18"/>
<text text-anchor="middle" x="545" y="-42.4" font-family="Helvetica,sans-Serif" font-size="9.00" fill="#9400d3">pinky</text>
</g>
<!-- darkred&#45;&#45;pinky -->
<g id="edge4" class="edge"><title>darkred&#45;&#45;pinky</title>
<path fill="none" stroke="black" d="M399.344,-46C428.299,-46 475.007,-46 507.484,-46"/>
<polygon fill="#aa0000" stroke="black" points="517.907,-46 507.907,-50.5001 512.907,-46 507.907,-46.0001 507.907,-46.0001 507.907,-46.0001 512.907,-46 507.907,-41.5001 517.907,-46 517.907,-46"/>
<text text-anchor="middle" x="459" y="-47.8" font-family="Helvetica,sans-Serif" font-size="9.00" fill="#000000">(4) darkred and pink</text>
</g>
<!-- red -->
<g id="node3" class="node"><title>red</title>
<ellipse fill="#ff0000" stroke="black" cx="699" cy="-46" rx="27" ry="18"/>
<text text-anchor="middle" x="699" y="-42.4" font-family="Helvetica,sans-Serif" font-size="9.00" fill="#ffff00">red</text>
</g>
<!-- violet -->
<g id="node9" class="node"><title>violet</title>
<ellipse fill="#9400d3" stroke="black" cx="896" cy="-47" rx="27" ry="18"/>
<text text-anchor="middle" x="896" y="-43.4" font-family="Helvetica,sans-Serif" font-size="9.00" fill="#ffaaff">violet</text>
</g>
<!-- red&#45;&#45;violet -->
<g id="edge6" class="edge"><title>red&#45;&#45;violet</title>
<path fill="none" stroke="black" d="M726.299,-46.1349C760.412,-46.3098 820.096,-46.6159 858.56,-46.8131"/>
<polygon fill="#ff0000" stroke="black" points="868.807,-46.8657 858.784,-51.3142 863.807,-46.84 858.808,-46.8143 858.808,-46.8143 858.808,-46.8143 863.807,-46.84 858.831,-42.3144 868.807,-46.8657 868.807,-46.8657"/>
<text text-anchor="middle" x="774" y="-48.8" font-family="Helvetica,sans-Serif" font-size="9.00" fill="#000000">(6) red to violet</text>
</g>
<!-- orange -->
<g id="node4" class="node"><title>orange</title>
<ellipse fill="#ff9900" stroke="black" cx="1103" cy="-47" rx="27" ry="18"/>
<text text-anchor="middle" x="1103" y="-43.4" font-family="Helvetica,sans-Serif" font-size="9.00" fill="#ffff00">orange</text>
</g>
<!-- indigo -->
<g id="node8" class="node"><title>indigo</title>
<ellipse fill="#4b0082" stroke="black" cx="1277" cy="-46" rx="27" ry="18"/>
<text text-anchor="middle" x="1277" y="-42.4" font-family="Helvetica,sans-Serif" font-size="9.00" fill="#ffaaff">indigo</text>
</g>
<!-- orange&#45;&#45;indigo -->
<g id="edge8" class="edge"><title>orange&#45;&#45;indigo</title>
<path fill="none" stroke="black" d="M1130.12,-46.8481C1159.38,-46.678 1206.99,-46.4012 1239.82,-46.2104"/>
<polygon fill="#ff9900" stroke="black" points="1249.91,-46.1517 1239.94,-50.7098 1244.91,-46.1808 1239.91,-46.2099 1239.91,-46.2099 1239.91,-46.2099 1244.91,-46.1808 1239.89,-41.71 1249.91,-46.1517 1249.91,-46.1517"/>
<text text-anchor="middle" x="1190" y="-48.8" font-family="Helvetica,sans-Serif" font-size="9.00" fill="#ffff00">(8) clockwork orange</text>
</g>
<!-- yellow -->
<g id="node5" class="node"><title>yellow</title>
<ellipse fill="#ffff00" stroke="black" cx="1431" cy="-46" rx="27" ry="18"/>
<text text-anchor="middle" x="1431" y="-42.4" font-family="Helvetica,sans-Serif" font-size="9.00" fill="#000000">yellow</text>
</g>
<!-- blue -->
<g id="node7" class="node"><title>blue</title>
<ellipse fill="#0000ff" stroke="black" cx="1595" cy="-46" rx="27" ry="18"/>
<text text-anchor="middle" x="1595" y="-42.4" font-family="Helvetica,sans-Serif" font-size="9.00" fill="#ffff00">blue</text>
</g>
<!-- yellow&#45;&#45;blue -->
<g id="edge10" class="edge"><title>yellow&#45;&#45;blue</title>
<path fill="none" stroke="black" d="M1458.03,-46C1484.99,-46 1527.34,-46 1557.61,-46"/>
<polygon fill="#ffff00" stroke="black" points="1567.77,-46 1557.77,-50.5001 1562.77,-46 1557.77,-46.0001 1557.77,-46.0001 1557.77,-46.0001 1562.77,-46 1557.77,-41.5001 1567.77,-46 1567.77,-46"/>
<text text-anchor="middle" x="1513" y="-47.8" font-family="Helvetica,sans-Serif" font-size="9.00" fill="#000000">(10) mellow yellow</text>
</g>
<!-- green -->
<g id="node6" class="node"><title>green</title>
<ellipse fill="#008800" stroke="black" cx="1755" cy="-19" rx="27" ry="18"/>
<text text-anchor="middle" x="1755" y="-15.4" font-family="Helvetica,sans-Serif" font-size="9.00" fill="#ffff00">green</text>
</g>
<!-- green&#45;&#45;black -->
<g id="edge12" class="edge"><title>green&#45;&#45;black</title>
<path fill="none" stroke="black" d="M1728.94,-14.107C1697.87,-8.47746 1643.24,-0 1596,-0 188,-0 188,-0 188,-0 144.711,-0 95.2914,-6.94298 62.9715,-12.4349"/>
<polygon fill="#008800" stroke="black" points="53.1083,-14.1563 62.1857,-8.00392 58.0339,-13.2966 62.9594,-12.4369 62.9594,-12.4369 62.9594,-12.4369 58.0339,-13.2966 63.7332,-16.8699 53.1083,-14.1563 53.1083,-14.1563"/>
<text text-anchor="middle" x="896" y="-1.8" font-family="Helvetica,sans-Serif" font-size="9.00" fill="#ffff00">(12) green dolphin street</text>
</g>
<!-- blue&#45;&#45;green -->
<g id="edge11" class="edge"><title>blue&#45;&#45;green</title>
<path fill="none" stroke="black" d="M1621.39,-41.662C1647.76,-37.1549 1689.23,-30.0681 1718.77,-25.0202"/>
<polygon fill="#0000ff" stroke="black" points="1728.68,-23.3273 1719.58,-29.4475 1723.75,-24.1695 1718.82,-25.0118 1718.82,-25.0118 1718.82,-25.0118 1723.75,-24.1695 1718.06,-20.5761 1728.68,-23.3273 1728.68,-23.3273"/>
<text text-anchor="middle" x="1675" y="-40.8" font-family="Helvetica,sans-Serif" font-size="9.00" fill="#ffff00">(11) blue in green</text>
</g>
<!-- indigo&#45;&#45;yellow -->
<g id="edge9" class="edge"><title>indigo&#45;&#45;yellow</title>
<path fill="none" stroke="black" d="M1304.13,-46C1328.89,-46 1366.3,-46 1393.9,-46"/>
<polygon fill="#4b0082" stroke="black" points="1403.96,-46 1393.96,-50.5001 1398.96,-46 1393.96,-46.0001 1393.96,-46.0001 1393.96,-46.0001 1398.96,-46 1393.96,-41.5001 1403.96,-46 1403.96,-46"/>
<text text-anchor="middle" x="1354" y="-47.8" font-family="Helvetica,sans-Serif" font-size="9.00" fill="#ffaaff">(9) mood indigo</text>
</g>
<!-- violet&#45;&#45;orange -->
<g id="edge7" class="edge"><title>violet&#45;&#45;orange</title>
<path fill="none" stroke="black" d="M923.38,-47C959.591,-47 1024.84,-47 1065.65,-47"/>
<polygon fill="#9400d3" stroke="black" points="1075.72,-47 1065.72,-51.5001 1070.72,-47 1065.72,-47.0001 1065.72,-47.0001 1065.72,-47.0001 1070.72,-47 1065.72,-42.5001 1075.72,-47 1075.72,-47"/>
<text text-anchor="middle" x="1023" y="-48.8" font-family="Helvetica,sans-Serif" font-size="9.00" fill="#ffaaff">(7) violent orange</text>
</g>
<!-- pinky&#45;&#45;red -->
<g id="edge5" class="edge"><title>pinky&#45;&#45;red</title>
<path fill="none" stroke="black" d="M572.13,-46C596.892,-46 634.301,-46 661.905,-46"/>
<polygon fill="#ffaaff" stroke="black" points="671.957,-46 661.957,-50.5001 666.957,-46 661.957,-46.0001 661.957,-46.0001 661.957,-46.0001 666.957,-46 661.957,-41.5001 671.957,-46 671.957,-46"/>
<text text-anchor="middle" x="622" y="-47.8" font-family="Helvetica,sans-Serif" font-size="9.00" fill="#9400d3">(5) pink and red</text>
</g>
<!-- white&#45;&#45;darkred -->
<g id="edge3" class="edge"><title>white&#45;&#45;darkred</title>
<path fill="none" stroke="black" d="M216.319,-46C247.418,-46 299.35,-46 334.367,-46"/>
<polygon fill="black" stroke="black" points="344.649,-46 334.649,-50.5001 339.649,-46 334.649,-46.0001 334.649,-46.0001 334.649,-46.0001 339.649,-46 334.649,-41.5001 344.649,-46 344.649,-46"/>
<text text-anchor="middle" x="280" y="-47.8" font-family="Helvetica,sans-Serif" font-size="9.00">(3) nights in white satin</text>
</g>
<!-- box1 -->
<g id="node12" class="node"><title>box1</title>
<polygon fill="yellow" stroke="black" points="963.782,-119 822.218,-119 822.218,-83 969.782,-83 969.782,-113 963.782,-119"/>
<polyline fill="none" stroke="black" points="963.782,-119 963.782,-113 "/>
<polyline fill="none" stroke="black" points="969.782,-113 963.782,-113 "/>
<text text-anchor="middle" x="896" y="-97.4" font-family="Helvetica,sans-Serif" font-size="9.00" fill="#000000">Note note note note note note çµ</text>
</g>
<!-- box1&#45;&#45;orange -->
<g id="edge1" class="edge"><title>box1&#45;&#45;orange</title>
<path fill="none" stroke="black" stroke-dasharray="1,5" d="M969.795,-83.9693C997.511,-77.209 1029.32,-69.1171 1058,-61 1064.63,-59.1228 1071.78,-56.9268 1078.34,-54.8382"/>
</g>
</g>
</svg>
