<svg height="198" width="410" xmlns:xlink="http://www.w3.org/1999/xlink" xmlns="http://www.w3.org/2000/svg" id="svg_output" version="1.1"><desc id="msc_source"># Generated by mscgen_js http://sverweij.github.io/mscgen_js
hscale="0.8";
A: Actor, fe:Front end, be: Back end;

A =&gt;&gt; fe: "log me in\n(id, secret)";
fe =&gt; be: "getToken\n(id, secret)";
fe &lt;&lt; be: [OK] token;
A &lt;&lt; fe: Whoop!;</desc><defs><style type="text/css">svg {     font-family: Helvetica, sans-serif;     font-size: 9pt;     background-color: white;     stroke : black;     color  : black; } rect {     fill: none;     stroke: black;     stroke-width: 2; } .bglayer {     fill:white;     stroke: white;     stroke-width: 0; } rect.textbg {     fill:white;     stroke:white;     stroke-width:0; } line {     stroke: black;     stroke-width: 2; } .arcrowomit {     stroke-dasharray: 2,2; } text {     color: inherit;     stroke: none;     text-anchor: middle; } text.entity {     text-decoration : underline; } text.anchor-start {     text-anchor: start; } path {     stroke : black;     stroke-width : 2;     fill : none; } .dotted {     stroke-dasharray: 5,2; } .arrow-marker {     overflow:visible; } .arrow-style { 	stroke : black;     stroke-dasharray : 100,1; /* 'none' should work, but doesn't in webkit */     stroke-width : 1; } .filled {     stroke:inherit;     fill:black; /* no-inherit */ } .signal {     marker-end : url(#signal); } .signal-both {     marker-end : url(#signal);     marker-start : url(#signal-l); } .method {     marker-end : url(#method); } .method-both {     marker-end : url(#method);     marker-start : url(#method-l); } .returnvalue {     stroke-dasharray: 5,2;     marker-end : url(#callback); } .returnvalue-both {     stroke-dasharray: 5,2;     marker-end : url(#callback);     marker-start : url(#callback-l); } .callback {     marker-end : url(#callback); } .callback-both {     marker-end : url(#callback);     marker-start : url(#callback-l); } .emphasised {     marker-end : url(#method); } .emphasised-both {     marker-end : url(#method);     marker-start : url(#method-l); } .lost {     marker-end : url(#lost); } .arcrowomit {     stroke-dasharray: 2,2; } .box {     /* fill: #ffc;  no-inherit */     fill : white;     opacity: 0.9; } .boxtext, .arctext {     font-size: 0.8em;     text-anchor: middle; } .comment {     stroke-dasharray: 5,2; }</style><marker markerHeight="10" markerWidth="10" markerUnits="strokeWidth" refY="3" refX="9" viewBox="0 0 10 10" class="arrow-marker" id="signal" orient="auto"><path class="arrow-style" d="M 9 3 l -8 2"></path></marker><marker markerHeight="10" markerWidth="10" markerUnits="strokeWidth" refY="3" refX="9" viewBox="0 0 10 10" class="arrow-marker" id="signal-l" orient="auto"><path class="arrow-style" d="M 9 3 l 8 2"></path></marker><marker markerHeight="10" markerWidth="10" markerUnits="strokeWidth" refY="3" refX="9" viewBox="0 0 10 10" class="arrow-marker" id="method" orient="auto"><polygon class="filled arrow-style" points="1,1 9,3 1,5"></polygon></marker><marker markerHeight="10" markerWidth="10" markerUnits="strokeWidth" refY="3" refX="9" viewBox="0 0 10 10" class="arrow-marker" id="method-l" orient="auto"><polygon class="filled arrow-style" points="17,1 9,3 17,5"></polygon></marker><marker markerHeight="10" markerWidth="10" markerUnits="strokeWidth" refY="3" refX="9" viewBox="0 0 10 10" class="arrow-marker" id="callback" orient="auto"><path class="arrow-style" d="M 1 1 l 8 2 l -8 2"></path></marker><marker markerHeight="10" markerWidth="10" markerUnits="strokeWidth" refY="3" refX="9" viewBox="0 0 10 10" class="arrow-marker" id="callback-l" orient="auto"><path class="arrow-style" d="M 17 1 l -8 2 l 8 2"></path></marker><marker markerHeight="10" markerWidth="10" markerUnits="strokeWidth" refY="3" refX="9" viewBox="0 0 10 10" class="arrow-marker" id="lost" orient="auto"><path class="arrow-style" d="M6.5,-0.5 L11.5,5.5 M6.5,5.5 L11.5,-0.5"></path></marker><g id="defs"><g id="A"><rect style="" height="32" width="80"></rect><g id="A_txt"><rect class="textbg" y="11" x="25.75" height="12" width="28.5"></rect><text class="entity" y="20" x="40"><tspan>Actor</tspan></text></g></g><g id="fe"><rect style="" height="32" width="80"></rect><g id="fe_txt"><rect class="textbg" y="11" x="14.349999999999998" height="12" width="51.300000000000004"></rect><text class="entity" y="20" x="40"><tspan>Front end</tspan></text></g></g><g id="be"><rect style="" height="32" width="80"></rect><g id="be_txt"><rect class="textbg" y="11" x="17.2" height="12" width="45.6"></rect><text class="entity" y="20" x="40"><tspan>Back end</tspan></text></g></g><g id="arcrow"><line class="arcrow" y2="16" x2="40" y1="-16" x1="40"></line><line class="arcrow" y2="16" x2="168" y1="-16" x1="168"></line><line class="arcrow" y2="16" x2="296" y1="-16" x1="296"></line></g><g id="arcrowomit"><line class="arcrowomit" y2="16" x2="40" y1="-16" x1="40"></line><line class="arcrowomit" y2="16" x2="168" y1="-16" x1="168"></line><line class="arcrowomit" y2="16" x2="296" y1="-16" x1="296"></line></g><g id="0_0"><line class="callback" y2="0" x2="168" y1="0" x1="40"></line><g id="0_0_txt"><rect class="textbg" y="-13" x="78.35" height="12" width="51.300000000000004"></rect><text y="-4" x="104"><tspan>log me in</tspan></text><rect class="textbg" y="1" x="69.8" height="12" width="68.4"></rect><text y="10" x="104"><tspan>(id, secret)</tspan></text></g></g><g id="1_0"><line class="method" y2="0" x2="296" y1="0" x1="168"></line><g id="1_0_txt"><rect class="textbg" y="-13" x="209.2" height="12" width="45.6"></rect><text y="-4" x="232"><tspan>getToken</tspan></text><rect class="textbg" y="1" x="197.8" height="12" width="68.4"></rect><text y="10" x="232"><tspan>(id, secret)</tspan></text></g></g><g id="2_0"><line class="returnvalue" y2="0" x2="168" y1="0" x1="296"></line><g id="2_0_txt"><rect class="textbg" y="-13" x="203.5" height="12" width="57"></rect><text y="-4" x="232"><tspan>[OK] token</tspan></text><rect class="textbg" y="1" x="232" height="12" width="0"></rect><text y="10" x="232"><tspan></tspan></text></g></g><g id="3_0"><line class="returnvalue" y2="0" x2="40" y1="0" x1="168"></line><g id="3_0_txt"><rect class="textbg" y="-13" x="86.9" height="12" width="34.2"></rect><text y="-4" x="104"><tspan>Whoop!</tspan></text><rect class="textbg" y="1" x="104" height="12" width="0"></rect><text y="10" x="104"><tspan></tspan></text></g></g></g></defs><g transform="translate(35,3) scale(1,1)" id="body"><g id="__background"><rect class="bglayer" y="-3" x="-35" height="198" width="410"></rect></g><g id="sequence"><use xlink:href="#A" y="0" x="0"></use><use xlink:href="#fe" y="0" x="128"></use><use xlink:href="#be" y="0" x="256"></use><use xlink:href="#arcrow" y="48" x="0"></use><use xlink:href="#arcrow" y="80" x="0"></use><use xlink:href="#0_0" y="80" x="0"></use><use xlink:href="#arcrow" y="112" x="0"></use><use xlink:href="#1_0" y="112" x="0"></use><use xlink:href="#arcrow" y="144" x="0"></use><use xlink:href="#2_0" y="144" x="0"></use><use xlink:href="#arcrow" y="176" x="0"></use><use xlink:href="#3_0" y="176" x="0"></use></g><g id="notelayer"></g></g></svg>