<svg height="102" width="402" xmlns:xlink="http://www.w3.org/1999/xlink" xmlns="http://www.w3.org/2000/svg" id="svg_output" version="1.1"><desc id="msc_source"># Generated by mscgen_js http://sverweij.github.io/mscgen_js
hscale="0.6";
a, b, c, n;
a =&gt; b: parallel\nwith c =&gt; b,
c =&gt; b: parallel\nwith a =&gt; b,
n note n: a note on\nthe same line;</desc><defs><style type="text/css">svg {     font-family: Helvetica, sans-serif;     font-size: 9pt;     background-color: white;     stroke : black;     color  : black; } rect {     fill: none;     stroke: black;     stroke-width: 2; } .bglayer {     fill:white;     stroke: white;     stroke-width: 0; } rect.textbg {     fill:white;     stroke:white;     stroke-width:0; } line {     stroke: black;     stroke-width: 2; } .arcrowomit {     stroke-dasharray: 2,2; } text {     color: inherit;     stroke: none;     text-anchor: middle; } text.entity {     text-decoration : underline; } text.anchor-start {     text-anchor: start; } path {     stroke : black;     stroke-width : 2;     fill : none; } .dotted {     stroke-dasharray: 5,2; } .arrow-marker {     overflow:visible; } .arrow-style { 	stroke : black;     stroke-dasharray : 100,1; /* 'none' should work, but doesn't in webkit */     stroke-width : 1; } .filled {     stroke:inherit;     fill:black; /* no-inherit */ } .signal {     marker-end : url(#signal); } .signal-both {     marker-end : url(#signal);     marker-start : url(#signal-l); } .method {     marker-end : url(#method); } .method-both {     marker-end : url(#method);     marker-start : url(#method-l); } .returnvalue {     stroke-dasharray: 5,2;     marker-end : url(#callback); } .returnvalue-both {     stroke-dasharray: 5,2;     marker-end : url(#callback);     marker-start : url(#callback-l); } .callback {     marker-end : url(#callback); } .callback-both {     marker-end : url(#callback);     marker-start : url(#callback-l); } .emphasised {     marker-end : url(#method); } .emphasised-both {     marker-end : url(#method);     marker-start : url(#method-l); } .lost {     marker-end : url(#lost); } .arcrowomit {     stroke-dasharray: 2,2; } .box {     /* fill: #ffc;  no-inherit */     fill : white;     opacity: 0.9; } .boxtext, .arctext {     font-size: 0.8em;     text-anchor: middle; } .comment {     stroke-dasharray: 5,2; }</style><marker markerHeight="10" markerWidth="10" markerUnits="strokeWidth" refY="3" refX="9" viewBox="0 0 10 10" class="arrow-marker" id="signal" orient="auto"><path class="arrow-style" d="M 9 3 l -8 2"></path></marker><marker markerHeight="10" markerWidth="10" markerUnits="strokeWidth" refY="3" refX="9" viewBox="0 0 10 10" class="arrow-marker" id="signal-l" orient="auto"><path class="arrow-style" d="M 9 3 l 8 2"></path></marker><marker markerHeight="10" markerWidth="10" markerUnits="strokeWidth" refY="3" refX="9" viewBox="0 0 10 10" class="arrow-marker" id="method" orient="auto"><polygon class="filled arrow-style" points="1,1 9,3 1,5"></polygon></marker><marker markerHeight="10" markerWidth="10" markerUnits="strokeWidth" refY="3" refX="9" viewBox="0 0 10 10" class="arrow-marker" id="method-l" orient="auto"><polygon class="filled arrow-style" points="17,1 9,3 17,5"></polygon></marker><marker markerHeight="10" markerWidth="10" markerUnits="strokeWidth" refY="3" refX="9" viewBox="0 0 10 10" class="arrow-marker" id="callback" orient="auto"><path class="arrow-style" d="M 1 1 l 8 2 l -8 2"></path></marker><marker markerHeight="10" markerWidth="10" markerUnits="strokeWidth" refY="3" refX="9" viewBox="0 0 10 10" class="arrow-marker" id="callback-l" orient="auto"><path class="arrow-style" d="M 17 1 l -8 2 l 8 2"></path></marker><marker markerHeight="10" markerWidth="10" markerUnits="strokeWidth" refY="3" refX="9" viewBox="0 0 10 10" class="arrow-marker" id="lost" orient="auto"><path class="arrow-style" d="M6.5,-0.5 L11.5,5.5 M6.5,5.5 L11.5,-0.5"></path></marker><g id="defs"><g id="a"><rect style="" height="32" width="60"></rect><g id="a_txt"><rect class="textbg" y="11" x="27.15" height="12" width="5.7"></rect><text class="entity" y="20" x="30"><tspan>a</tspan></text></g></g><g id="b"><rect style="" height="32" width="60"></rect><g id="b_txt"><rect class="textbg" y="11" x="27.15" height="12" width="5.7"></rect><text class="entity" y="20" x="30"><tspan>b</tspan></text></g></g><g id="c"><rect style="" height="32" width="60"></rect><g id="c_txt"><rect class="textbg" y="11" x="27.15" height="12" width="5.7"></rect><text class="entity" y="20" x="30"><tspan>c</tspan></text></g></g><g id="n"><rect style="" height="32" width="60"></rect><g id="n_txt"><rect class="textbg" y="11" x="27.15" height="12" width="5.7"></rect><text class="entity" y="20" x="30"><tspan>n</tspan></text></g></g><g id="arcrow"><line class="arcrow" y2="16" x2="30" y1="-16" x1="30"></line><line class="arcrow" y2="16" x2="126" y1="-16" x1="126"></line><line class="arcrow" y2="16" x2="222" y1="-16" x1="222"></line><line class="arcrow" y2="16" x2="318" y1="-16" x1="318"></line></g><g id="arcrowomit"><line class="arcrowomit" y2="16" x2="30" y1="-16" x1="30"></line><line class="arcrowomit" y2="16" x2="126" y1="-16" x1="126"></line><line class="arcrowomit" y2="16" x2="222" y1="-16" x1="222"></line><line class="arcrowomit" y2="16" x2="318" y1="-16" x1="318"></line></g><g id="0_0"><line class="method" y2="0" x2="126" y1="0" x1="30"></line><g id="0_0_txt"><rect class="textbg" y="-13" x="55.2" height="12" width="45.6"></rect><text y="-4" x="78"><tspan>parallel</tspan></text><rect class="textbg" y="1" x="46.65" height="12" width="62.7"></rect><text y="10" x="78"><tspan>with c =&gt; b</tspan></text></g></g><g id="0_1"><line class="method" y2="0" x2="126" y1="0" x1="222"></line><g id="0_1_txt"><rect class="textbg" y="-13" x="151.2" height="12" width="45.6"></rect><text y="-4" x="174"><tspan>parallel</tspan></text><rect class="textbg" y="1" x="142.65" height="12" width="62.7"></rect><text y="10" x="174"><tspan>with a =&gt; b</tspan></text></g></g><g id="0_2"><path style="" class="box" d="M272,-14l83,0 l0,9 l9,0 m-9,-9 l9,9 l0,19 l-92,0 l0,-28 "></path><g id="0_2_txt"><rect class="textbg" y="-13" x="292.35" height="12" width="51.300000000000004"></rect><text y="-4" x="318"><tspan>a note on</tspan></text><rect class="textbg" y="1" x="280.95" height="12" width="74.10000000000001"></rect><text y="10" x="318"><tspan>the same line</tspan></text></g></g></g></defs><g transform="translate(27,3) scale(1,1)" id="body"><g id="__background"><rect class="bglayer" y="-3" x="-27" height="102" width="402"></rect></g><g id="sequence"><use xlink:href="#a" y="0" x="0"></use><use xlink:href="#b" y="0" x="96"></use><use xlink:href="#c" y="0" x="192"></use><use xlink:href="#n" y="0" x="288"></use><use xlink:href="#arcrow" y="48" x="0"></use><use xlink:href="#arcrow" y="80" x="0"></use><use xlink:href="#0_0" y="80" x="0"></use><use xlink:href="#arcrow" y="80" x="0"></use><use xlink:href="#0_1" y="80" x="0"></use><use xlink:href="#arcrow" y="80" x="0"></use></g><g id="notelayer"><use xlink:href="#0_2" y="80" x="0"></use></g></g></svg>