<svg height="196" width="400" xmlns:xlink="http://www.w3.org/1999/xlink" xmlns="http://www.w3.org/2000/svg" id="mscgen_js$svg$__svg" version="1.1"><desc id="mscgen_js$svg$__svg__msc_source">

# Generated by mscgen_js - http://sverweij.github.io/mscgen_js
hscale="0.6";

a  box b :  box (action);
b abox c : abox (state/ condition);
c rbox d : rbox (MSC reference);</desc><defs><style type="text/css">svg{  font-family:Helvetica,sans-serif;  font-size:9pt;  font-weight:normal;  font-style:normal;  text-decoration:none;  background-color:white;  stroke:black;  color:black;}rect{  fill:none;  stroke:black;  stroke-width: 2;}.bglayer{  fill:white;  stroke:white;  stroke-width:0;}rect.textbg{  fill:white;  stroke:white;  stroke-width:0;  opacity:0.9;}line{  stroke:black;  stroke-width:2;}.arcrowomit{  stroke-dasharray:2,2;}text{  color:inherit;  stroke:none;  text-anchor:middle;}text.entity{  text-decoration:underline;}text.anchor-start{  text-anchor:start;}path{  stroke:black;  color:black;  stroke-width:2;  fill:none;}.dotted{  stroke-dasharray:5,2;}.striped{  stroke-dasharray:10,5;}.arrow-marker{  overflow:visible;}.arrow-style{  stroke:black;  stroke-dasharray:100,1; /* 'none' should work, but doesn't in webkit */  stroke-width:1;}.filled{  stroke:inherit;  fill:black; /* no-inherit */}.arcrowomit{  stroke-dasharray:2,2;}.box{  /* fill: #ffc;  no-inherit */  fill:white;  opacity:0.9;}.boxtext, .arctext{  font-size:0.8em;  text-anchor:middle;}.comment{  stroke-dasharray:5,2;}.signal{  marker-end:url(#signal);}.signal-u{  marker-end:url(#signal-u);}.signal-both{  marker-end:url(#signal);  marker-start:url(#signal-l);}.signal-both-u{  marker-end:url(#signal-u);  marker-start:url(#signal-lu);}.signal-both-self{  marker-end:url(#signal-u);  marker-start:url(#signal-l);}.method{  marker-end:url(#method);}.method-both{  marker-end:url(#method);  marker-start:url(#method-l);}.returnvalue{  stroke-dasharray:5,2;  marker-end:url(#callback);}.returnvalue-both{  stroke-dasharray:5,2;  marker-end:url(#callback);  marker-start:url(#callback-l);}.callback{  marker-end:url(#callback);}.callback-both{  marker-end:url(#callback);  marker-start:url(#callback-l);}.emphasised{  marker-end:url(#method);}.emphasised-both{  marker-end:url(#method);  marker-start:url(#method-l);}.lost{  marker-end:url(#lost);}.inherit{  stroke:inherit;  color:inherit;}.inherit-fill{  fill:inherit;}.watermark{  stroke:black;  color:black;  fill:black;  font-size: 48pt;  font-weight:bold;  opacity:0.14;}</style><marker markerHeight="10" markerWidth="10" markerUnits="strokeWidth" refY="3" refX="9" viewBox="0 0 10 10" class="arrow-marker" id="signal" orient="auto"><path class="arrow-style" d="M 9 3 l -8 2"/></marker><marker markerHeight="10" markerWidth="10" markerUnits="strokeWidth" refY="3" refX="9" viewBox="0 0 10 10" class="arrow-marker" id="signal-u" orient="auto"><path class="arrow-style" d="M 9 3 l -8 -2"/></marker><marker markerHeight="10" markerWidth="10" markerUnits="strokeWidth" refY="3" refX="9" viewBox="0 0 10 10" class="arrow-marker" id="signal-l" orient="auto"><path class="arrow-style" d="M 9 3 l 8 2"/></marker><marker markerHeight="10" markerWidth="10" markerUnits="strokeWidth" refY="3" refX="9" viewBox="0 0 10 10" class="arrow-marker" id="signal-lu" orient="auto"><path class="arrow-style" d="M 9 3 l 8 -2"/></marker><marker markerHeight="10" markerWidth="10" markerUnits="strokeWidth" refY="3" refX="9" viewBox="0 0 10 10" class="arrow-marker" id="method" orient="auto"><polygon class="filled arrow-style" points="1,1 9,3 1,5"/></marker><marker markerHeight="10" markerWidth="10" markerUnits="strokeWidth" refY="3" refX="9" viewBox="0 0 10 10" class="arrow-marker" id="method-l" orient="auto"><polygon class="filled arrow-style" points="17,1 9,3 17,5"/></marker><marker markerHeight="10" markerWidth="10" markerUnits="strokeWidth" refY="3" refX="9" viewBox="0 0 10 10" class="arrow-marker" id="callback" orient="auto"><path class="arrow-style" d="M 1 1 l 8 2 l -8 2"/></marker><marker markerHeight="10" markerWidth="10" markerUnits="strokeWidth" refY="3" refX="9" viewBox="0 0 10 10" class="arrow-marker" id="callback-l" orient="auto"><path class="arrow-style" d="M 17 1 l -8 2 l 8 2"/></marker><marker markerHeight="10" markerWidth="10" markerUnits="strokeWidth" refY="3" refX="9" viewBox="0 0 10 10" class="arrow-marker" id="lost" orient="auto"><path class="arrow-style" d="M6.5,-0.5 L11.5,5.5 M6.5,5.5 L11.5,-0.5"/></marker><g id="mscgen_js$svg$__svg__defs"><g id="mscgen_js$svg$__svga"><rect style="" height="38" width="60"/><g id="mscgen_js$svg$__svga_txt"><rect class="textbg" y="12.25" x="25.66666603088379" height="13" width="8.666666984558105"/><text class="entity" y="22.25" x="30"><tspan>a</tspan></text></g></g><g id="mscgen_js$svg$__svgb"><rect style="" height="38" width="60"/><g id="mscgen_js$svg$__svgb_txt"><rect class="textbg" y="12.25" x="25.66666603088379" height="13" width="8.666666984558105"/><text class="entity" y="22.25" x="30"><tspan>b</tspan></text></g></g><g id="mscgen_js$svg$__svgc"><rect style="" height="38" width="60"/><g id="mscgen_js$svg$__svgc_txt"><rect class="textbg" y="12.25" x="26" height="13" width="8"/><text class="entity" y="22.25" x="30"><tspan>c</tspan></text></g></g><g id="mscgen_js$svg$__svgd"><rect style="" height="38" width="60"/><g id="mscgen_js$svg$__svgd_txt"><rect class="textbg" y="12.25" x="25.66666603088379" height="13" width="8.666666984558105"/><text class="entity" y="22.25" x="30"><tspan>d</tspan></text></g></g><g id="mscgen_js$svg$__svgarcrow"><line class="mscgen_js$svg$__svgarcrow" y2="19" x2="30" y1="-19" x1="30"/><line class="mscgen_js$svg$__svgarcrow" y2="19" x2="126" y1="-19" x1="126"/><line class="mscgen_js$svg$__svgarcrow" y2="19" x2="222" y1="-19" x1="222"/><line class="mscgen_js$svg$__svgarcrow" y2="19" x2="318" y1="-19" x1="318"/></g><g id="mscgen_js$svg$__svg0_0"><rect style="" class="box" y="-17" x="-16" height="34" width="188"/><g id="mscgen_js$svg$__svg0_0_txt"><rect class="textbg" y="-6.75" x="45.69166564941406" height="13" width="64.61666870117188"/><text y="3.25" x="78"><tspan>box (action)</tspan></text></g></g><g id="mscgen_js$svg$__svgarcrow_0"><line class="arcrow" y2="19" x2="30" y1="-19" x1="30"/><line class="arcrow" y2="19" x2="126" y1="-19" x1="126"/><line class="arcrow" y2="19" x2="222" y1="-19" x1="222"/><line class="arcrow" y2="19" x2="318" y1="-19" x1="318"/></g><g id="mscgen_js$svg$__svg1_0"><path style="" class="box" d="M80,0l3, -17l182,0l3,17l-3,17l-182,0 l-3,-17"/><g id="mscgen_js$svg$__svg1_0_txt"><rect class="textbg" y="-6.75" x="114.03333282470703" height="13" width="119.93333435058594"/><text y="3.25" x="174"><tspan>abox (state/ condition)</tspan></text></g></g><g id="mscgen_js$svg$__svgarcrow_1"><line class="arcrow" y2="19" x2="30" y1="-19" x1="30"/><line class="arcrow" y2="19" x2="126" y1="-19" x1="126"/><line class="arcrow" y2="19" x2="222" y1="-19" x1="222"/><line class="arcrow" y2="19" x2="318" y1="-19" x1="318"/></g><g id="mscgen_js$svg$__svg2_0"><rect style="" class="box" ry="6" rx="6" y="-17" x="176" height="34" width="188"/><g id="mscgen_js$svg$__svg2_0_txt"><rect class="textbg" y="-6.75" x="211.39166259765625" height="13" width="117.21666717529297"/><text y="3.25" x="270"><tspan>rbox (MSC reference)</tspan></text></g></g><g id="mscgen_js$svg$__svgarcrow_2"><line class="arcrow" y2="19" x2="30" y1="-19" x1="30"/><line class="arcrow" y2="19" x2="126" y1="-19" x1="126"/><line class="arcrow" y2="19" x2="222" y1="-19" x1="222"/><line class="arcrow" y2="19" x2="318" y1="-19" x1="318"/></g></g></defs><g transform="translate(26,3) scale(1,1)" id="mscgen_js$svg$__svg__body"><g id="mscgen_js$svg$__svg__background"><rect class="bglayer" y="-3" x="-26" height="196" width="400"/></g><g id="mscgen_js$svg$__svg__arcspanlayer"/><g id="mscgen_js$svg$__svg__lifelinelayer"><use xlink:href="#mscgen_js$svg$__svgarcrow" y="57" x="0"/><use xlink:href="#mscgen_js$svg$__svgarcrow_0" y="95" x="0"/><use xlink:href="#mscgen_js$svg$__svgarcrow_1" y="133" x="0"/><use xlink:href="#mscgen_js$svg$__svgarcrow_2" y="171" x="0"/></g><g id="mscgen_js$svg$__svg__sequencelayer"><use xlink:href="#mscgen_js$svg$__svga" y="0" x="0"/><use xlink:href="#mscgen_js$svg$__svgb" y="0" x="96"/><use xlink:href="#mscgen_js$svg$__svgc" y="0" x="192"/><use xlink:href="#mscgen_js$svg$__svgd" y="0" x="288"/></g><g id="mscgen_js$svg$__svg__notelayer"><use xlink:href="#mscgen_js$svg$__svg0_0" y="95" x="0"/><use xlink:href="#mscgen_js$svg$__svg1_0" y="133" x="0"/><use xlink:href="#mscgen_js$svg$__svg2_0" y="171" x="0"/></g><g id="mscgen_js$svg$__svg__watermark"/></g></svg>