<svg height="424" width="528" xmlns:xlink="http://www.w3.org/1999/xlink" xmlns="http://www.w3.org/2000/svg" id="__svg_output" version="1.1"><desc id="__msc_source">

# Generated by mscgen_js - http://sverweij.github.io/mscgen_js
hscale="0.8";
a,b,c,d;

a =&gt;&gt; b;
b loop d {
   b =&gt;&gt; c: knock;
   c alt d {
      c =&gt;&gt; d: do stuff;
      ---: condition not true;
      c =&gt;&gt; d: do other stuff;
   }: some condition;
   
}: 3 times;</desc><defs><style type="text/css">svg {     font-family: Helvetica, sans-serif;     font-size: 9pt;     background-color: white;     stroke : black;     color  : black; } rect {     fill: none;     stroke: black;     stroke-width: 2; } .bglayer {     fill:white;     stroke: white;     stroke-width: 0; } rect.textbg {     fill:white;     stroke:white;     stroke-width:0;     opacity: 0.9; } line {     stroke: black;     stroke-width: 2; } .arcrowomit {     stroke-dasharray: 2,2; } text {     color: inherit;     stroke: none;     text-anchor: middle; } text.entity {     text-decoration : underline; } text.anchor-start {     text-anchor: start; }path {     stroke: black;     color: black;     stroke-width: 2;     fill: none; } .dotted {    stroke-dasharray: 5,2; } .striped {     stroke-dasharray: 10,5; } .arrow-marker {     overflow:visible; } .arrow-style {     stroke : black;     stroke-dasharray : 100,1; /* 'none' should work, but doesn't in webkit */     stroke-width : 1; } .filled {     stroke:inherit;     fill:black; /* no-inherit */ } .arcrowomit {     stroke-dasharray: 2,2; } .box {     /* fill: #ffc;  no-inherit */     fill : white;     opacity: 0.9; } .boxtext, .arctext {     font-size: 0.8em;     text-anchor: middle; } .comment {     stroke-dasharray: 5,2; } .signal {     marker-end : url(#signal); } .signal-u {     marker-end : url(#signal-u); } .signal-both {     marker-end : url(#signal);     marker-start : url(#signal-l); } .signal-both-u {     marker-end : url(#signal-u);     marker-start : url(#signal-lu); } .signal-both-self {     marker-end : url(#signal-u);     marker-start : url(#signal-l); } .method {     marker-end : url(#method); } .method-both {     marker-end : url(#method);     marker-start : url(#method-l); } .returnvalue {     stroke-dasharray: 5,2;     marker-end : url(#callback); } .returnvalue-both {     stroke-dasharray: 5,2;     marker-end : url(#callback);     marker-start : url(#callback-l); } .callback {     marker-end : url(#callback); } .callback-both {     marker-end : url(#callback);     marker-start : url(#callback-l); } .emphasised {     marker-end : url(#method); } .emphasised-both {     marker-end : url(#method);     marker-start : url(#method-l); } .lost {     marker-end : url(#lost); } .inherit {     stroke : inherit;     color : inherit; } .inherit-fill {     fill : inherit; }</style><marker markerHeight="10" markerWidth="10" markerUnits="strokeWidth" refY="3" refX="9" viewBox="0 0 10 10" class="arrow-marker" id="signal" orient="auto"><path class="arrow-style" d="M 9 3 l -8 2"></path></marker><marker markerHeight="10" markerWidth="10" markerUnits="strokeWidth" refY="3" refX="9" viewBox="0 0 10 10" class="arrow-marker" id="signal-u" orient="auto"><path class="arrow-style" d="M 9 3 l -8 -2"></path></marker><marker markerHeight="10" markerWidth="10" markerUnits="strokeWidth" refY="3" refX="9" viewBox="0 0 10 10" class="arrow-marker" id="signal-l" orient="auto"><path class="arrow-style" d="M 9 3 l 8 2"></path></marker><marker markerHeight="10" markerWidth="10" markerUnits="strokeWidth" refY="3" refX="9" viewBox="0 0 10 10" class="arrow-marker" id="signal-lu" orient="auto"><path class="arrow-style" d="M 9 3 l 8 -2"></path></marker><marker markerHeight="10" markerWidth="10" markerUnits="strokeWidth" refY="3" refX="9" viewBox="0 0 10 10" class="arrow-marker" id="method" orient="auto"><polygon class="filled arrow-style" points="1,1 9,3 1,5"></polygon></marker><marker markerHeight="10" markerWidth="10" markerUnits="strokeWidth" refY="3" refX="9" viewBox="0 0 10 10" class="arrow-marker" id="method-l" orient="auto"><polygon class="filled arrow-style" points="17,1 9,3 17,5"></polygon></marker><marker markerHeight="10" markerWidth="10" markerUnits="strokeWidth" refY="3" refX="9" viewBox="0 0 10 10" class="arrow-marker" id="callback" orient="auto"><path class="arrow-style" d="M 1 1 l 8 2 l -8 2"></path></marker><marker markerHeight="10" markerWidth="10" markerUnits="strokeWidth" refY="3" refX="9" viewBox="0 0 10 10" class="arrow-marker" id="callback-l" orient="auto"><path class="arrow-style" d="M 17 1 l -8 2 l 8 2"></path></marker><marker markerHeight="10" markerWidth="10" markerUnits="strokeWidth" refY="3" refX="9" viewBox="0 0 10 10" class="arrow-marker" id="lost" orient="auto"><path class="arrow-style" d="M6.5,-0.5 L11.5,5.5 M6.5,5.5 L11.5,-0.5"></path></marker><g id="__defs"><g id="a"><rect style="" height="38" width="80"></rect><g id="a_txt"><rect class="textbg" y="12.25" x="35.66666793823242" height="13" width="8.666666984558105"></rect><text class="entity" y="22.25" x="40"><tspan>a</tspan></text></g></g><g id="b"><rect style="" height="38" width="80"></rect><g id="b_txt"><rect class="textbg" y="12.25" x="35.66666793823242" height="13" width="8.666666984558105"></rect><text class="entity" y="22.25" x="40"><tspan>b</tspan></text></g></g><g id="c"><rect style="" height="38" width="80"></rect><g id="c_txt"><rect class="textbg" y="12.25" x="36" height="13" width="8"></rect><text class="entity" y="22.25" x="40"><tspan>c</tspan></text></g></g><g id="d"><rect style="" height="38" width="80"></rect><g id="d_txt"><rect class="textbg" y="12.25" x="35.66666793823242" height="13" width="8.666666984558105"></rect><text class="entity" y="22.25" x="40"><tspan>d</tspan></text></g></g><g id="arcrow"><line class="arcrow" y2="19" x2="40" y1="-19" x1="40"></line><line class="arcrow" y2="19" x2="168" y1="-19" x1="168"></line><line class="arcrow" y2="19" x2="296" y1="-19" x1="296"></line><line class="arcrow" y2="19" x2="424" y1="-19" x1="424"></line></g><g id="0_0"><line class="callback" y2="0" x2="168" y1="0" x1="40"></line><g id="0_0_txt"></g></g><g id="arcrow_0"><line class="arcrow" y2="19" x2="40" y1="-19" x1="40"></line><line class="arcrow" y2="19" x2="168" y1="-19" x1="168"></line><line class="arcrow" y2="19" x2="296" y1="-19" x1="296"></line><line class="arcrow" y2="19" x2="424" y1="-19" x1="424"></line></g><g id="1_0_label"><path style="" class="box" d="M99,0 l78.94999694824219,0  l0,10 l-7,7 l-71.94999694824219,0 H"></path><g id="1_0_label_txt"><rect class="textbg" y="2.75" x="100" height="13" width="69.94999694824219"></rect><text class="anchor-start" y="12.75" x="101"><tspan>loop: 3 times</tspan></text></g></g><g id="arcrow_1"><line class="arcrow" y2="19" x2="40" y1="-19" x1="40"></line><line class="arcrow" y2="19" x2="168" y1="-19" x1="168"></line><line class="arcrow" y2="19" x2="296" y1="-19" x1="296"></line><line class="arcrow" y2="19" x2="424" y1="-19" x1="424"></line></g><g id="2_0"><line class="callback" y2="0" x2="296" y1="0" x1="168"></line><g id="2_0_txt"><rect class="textbg" y="-13.75" x="215.3333282470703" height="13" width="33.33333206176758"></rect><text y="-3.75" x="232"><tspan>knock</tspan></text><rect class="textbg" height="0" width="0"></rect><text y="10.25" x="232"><tspan></tspan></text></g></g><g id="arcrow_2"><line class="arcrow" y2="19" x2="40" y1="-19" x1="40"></line><line class="arcrow" y2="19" x2="168" y1="-19" x1="168"></line><line class="arcrow" y2="19" x2="296" y1="-19" x1="296"></line><line class="arcrow" y2="19" x2="424" y1="-19" x1="424"></line></g><g id="3_0_label"><path style="" class="box" d="M231,0 l110.93359375,0  l0,10 l-7,7 l-103.93359375,0 H"></path><g id="3_0_label_txt"><rect class="textbg" y="2.75" x="232" height="13" width="101.93333435058594"></rect><text class="anchor-start" y="12.75" x="233"><tspan>alt: some condition</tspan></text></g></g><g id="arcrow_3"><line class="arcrow" y2="19" x2="40" y1="-19" x1="40"></line><line class="arcrow" y2="19" x2="168" y1="-19" x1="168"></line><line class="arcrow" y2="19" x2="296" y1="-19" x1="296"></line><line class="arcrow" y2="19" x2="424" y1="-19" x1="424"></line></g><g id="4_0"><line class="callback" y2="0" x2="424" y1="0" x1="296"></line><g id="4_0_txt"><rect class="textbg" y="-13.75" x="339.4416809082031" height="13" width="41.11666488647461"></rect><text y="-3.75" x="360"><tspan>do stuff</tspan></text><rect class="textbg" height="0" width="0"></rect><text y="10.25" x="360"><tspan></tspan></text></g></g><g id="arcrow_4"><line class="arcrow" y2="19" x2="40" y1="-19" x1="40"></line><line class="arcrow" y2="19" x2="168" y1="-19" x1="168"></line><line class="arcrow" y2="19" x2="296" y1="-19" x1="296"></line><line class="arcrow" y2="19" x2="424" y1="-19" x1="424"></line></g><g id="5_0"><line class="striped" y2="0" x2="490" y1="0" x1="230"></line><g id="5_0_txt"><g id="5_0_txt"><rect class="textbg" y="-6.75" x="313.0249938964844" height="13" width="93.94999694824219"></rect><text y="3.25" x="360"><tspan>condition not true</tspan></text></g></g></g><g id="arcrow_5"><line class="arcrow" y2="19" x2="40" y1="-19" x1="40"></line><line class="arcrow" y2="19" x2="168" y1="-19" x1="168"></line><line class="arcrow" y2="19" x2="296" y1="-19" x1="296"></line><line class="arcrow" y2="19" x2="424" y1="-19" x1="424"></line></g><g id="6_0"><line class="callback" y2="0" x2="424" y1="0" x1="296"></line><g id="6_0_txt"><rect class="textbg" y="-13.75" x="324.1166687011719" height="13" width="71.76667022705078"></rect><text y="-3.75" x="360"><tspan>do other stuff</tspan></text><rect class="textbg" height="0" width="0"></rect><text y="10.25" x="360"><tspan></tspan></text></g></g><g id="arcrow_6"><line class="arcrow" y2="19" x2="40" y1="-19" x1="40"></line><line class="arcrow" y2="19" x2="168" y1="-19" x1="168"></line><line class="arcrow" y2="19" x2="296" y1="-19" x1="296"></line><line class="arcrow" y2="19" x2="424" y1="-19" x1="424"></line></g><g id="7_0"><g id="7_0"></g></g><g id="arcrow_7"><line class="arcrow" y2="19" x2="40" y1="-19" x1="40"></line><line class="arcrow" y2="19" x2="168" y1="-19" x1="168"></line><line class="arcrow" y2="19" x2="296" y1="-19" x1="296"></line><line class="arcrow" y2="19" x2="424" y1="-19" x1="424"></line></g><g id="8_0"><g id="8_0"></g></g><g id="arcrow_8"><line class="arcrow" y2="19" x2="40" y1="-19" x1="40"></line><line class="arcrow" y2="19" x2="168" y1="-19" x1="168"></line><line class="arcrow" y2="19" x2="296" y1="-19" x1="296"></line><line class="arcrow" y2="19" x2="424" y1="-19" x1="424"></line></g><g id="1_0"><rect style="" class="box" x="98" height="266" width="396"></rect><g id="1_0_txt"></g></g><g id="3_0"><rect style="" class="box" x="230" height="152" width="260"></rect><g id="3_0_txt"></g></g></g></defs><g transform="translate(32,3) scale(1,1)" id="__body"><g id="__background"><rect class="bglayer" y="-3" x="-32" height="424" width="528"></rect></g><g id="__arcspanlayer"><use xlink:href="#1_0" y="133" x="0"></use><use xlink:href="#3_0" y="209" x="0"></use></g><g id="__lifelinelayer"><use xlink:href="#arcrow" y="57" x="0"></use><use xlink:href="#arcrow_0" y="95" x="0"></use><use xlink:href="#arcrow_1" y="133" x="0"></use><use xlink:href="#arcrow_2" y="171" x="0"></use><use xlink:href="#arcrow_3" y="209" x="0"></use><use xlink:href="#arcrow_4" y="247" x="0"></use><use xlink:href="#arcrow_5" y="285" x="0"></use><use xlink:href="#arcrow_6" y="323" x="0"></use><use xlink:href="#arcrow_7" y="361" x="0"></use><use xlink:href="#arcrow_8" y="399" x="0"></use></g><g id="__sequencelayer"><use xlink:href="#a" y="0" x="0"></use><use xlink:href="#b" y="0" x="128"></use><use xlink:href="#c" y="0" x="256"></use><use xlink:href="#d" y="0" x="384"></use><use xlink:href="#0_0" y="95" x="0"></use><use xlink:href="#2_0" y="171" x="0"></use><use xlink:href="#4_0" y="247" x="0"></use><use xlink:href="#5_0" y="285" x="0"></use><use xlink:href="#6_0" y="323" x="0"></use><use xlink:href="#7_0" y="361" x="0"></use><use xlink:href="#8_0" y="399" x="0"></use></g><g id="__notelayer"><use xlink:href="#1_0_label" y="133" x="0"></use><use xlink:href="#3_0_label" y="209" x="0"></use></g></g></svg>