<svg height="198" width="318" xmlns:xlink="http://www.w3.org/1999/xlink" xmlns="http://www.w3.org/2000/svg" id="svg_output" version="1.1"><desc id="msc_source"># Generated by mscgen_js http://sverweij.github.io/mscgen_js
msc {
hscale="0.9";
    
a [label="linecolor=\n\"orange\"", 
   linecolor="orange"],
b [label="textbgcolor=\n\"yellow\"", 
   textbgcolor="yellow"];

a =&gt;&gt; b  [label="linecolor=\"blue\"", 
          linecolor="blue"];
b &gt;&gt; a   [label="textcolor=\"green\"",
          textcolor="green"];
a =&gt; b   [label="textbgcolor=\"lime\"",
          textbgcolor="lime"];
a note a [label="color bonanza",
          linecolor="violet",
          textbgcolor="pink",
          textcolor="red"],
b note b  [label="color\nbonanza",
          linecolor="#7777FF",
          textbgcolor="cyan",
          textcolor="blue"];
}</desc><defs><style type="text/css">svg {     font-family: Helvetica, sans-serif;     font-size: 9pt;     background-color: white;     stroke : black;     color  : black; } rect {     fill: none;     stroke: black;     stroke-width: 2; } .bglayer {     fill:white;     stroke: white;     stroke-width: 0; } rect.textbg {     fill:white;     stroke:white;     stroke-width:0; } line {     stroke: black;     stroke-width: 2; } .arcrowomit {     stroke-dasharray: 2,2; } text {     color: inherit;     stroke: none;     text-anchor: middle; } text.entity {     text-decoration : underline; } text.anchor-start {     text-anchor: start; } path {     stroke : black;     stroke-width : 2;     fill : none; } .dotted {     stroke-dasharray: 5,2; } .arrow-marker {     overflow:visible; } .arrow-style { 	stroke : black;     stroke-dasharray : 100,1; /* 'none' should work, but doesn't in webkit */     stroke-width : 1; } .filled {     stroke:inherit;     fill:black; /* no-inherit */ } .signal {     marker-end : url(#signal); } .signal-both {     marker-end : url(#signal);     marker-start : url(#signal-l); } .method {     marker-end : url(#method); } .method-both {     marker-end : url(#method);     marker-start : url(#method-l); } .returnvalue {     stroke-dasharray: 5,2;     marker-end : url(#callback); } .returnvalue-both {     stroke-dasharray: 5,2;     marker-end : url(#callback);     marker-start : url(#callback-l); } .callback {     marker-end : url(#callback); } .callback-both {     marker-end : url(#callback);     marker-start : url(#callback-l); } .emphasised {     marker-end : url(#method); } .emphasised-both {     marker-end : url(#method);     marker-start : url(#method-l); } .lost {     marker-end : url(#lost); } .arcrowomit {     stroke-dasharray: 2,2; } .box {     /* fill: #ffc;  no-inherit */     fill : white;     opacity: 0.9; } .boxtext, .arctext {     font-size: 0.8em;     text-anchor: middle; } .comment {     stroke-dasharray: 5,2; }</style><marker markerHeight="10" markerWidth="10" markerUnits="strokeWidth" refY="3" refX="9" viewBox="0 0 10 10" class="arrow-marker" id="signal" orient="auto"><path class="arrow-style" d="M 9 3 l -8 2"></path></marker><marker markerHeight="10" markerWidth="10" markerUnits="strokeWidth" refY="3" refX="9" viewBox="0 0 10 10" class="arrow-marker" id="signal-l" orient="auto"><path class="arrow-style" d="M 9 3 l 8 2"></path></marker><marker markerHeight="10" markerWidth="10" markerUnits="strokeWidth" refY="3" refX="9" viewBox="0 0 10 10" class="arrow-marker" id="method" orient="auto"><polygon class="filled arrow-style" points="1,1 9,3 1,5"></polygon></marker><marker markerHeight="10" markerWidth="10" markerUnits="strokeWidth" refY="3" refX="9" viewBox="0 0 10 10" class="arrow-marker" id="method-l" orient="auto"><polygon class="filled arrow-style" points="17,1 9,3 17,5"></polygon></marker><marker markerHeight="10" markerWidth="10" markerUnits="strokeWidth" refY="3" refX="9" viewBox="0 0 10 10" class="arrow-marker" id="callback" orient="auto"><path class="arrow-style" d="M 1 1 l 8 2 l -8 2"></path></marker><marker markerHeight="10" markerWidth="10" markerUnits="strokeWidth" refY="3" refX="9" viewBox="0 0 10 10" class="arrow-marker" id="callback-l" orient="auto"><path class="arrow-style" d="M 17 1 l -8 2 l 8 2"></path></marker><marker markerHeight="10" markerWidth="10" markerUnits="strokeWidth" refY="3" refX="9" viewBox="0 0 10 10" class="arrow-marker" id="lost" orient="auto"><path class="arrow-style" d="M6.5,-0.5 L11.5,5.5 M6.5,5.5 L11.5,-0.5"></path></marker><g id="defs"><g id="a"><rect style="stroke:orange;" height="32" width="90"></rect><g id="a_txt"><rect class="textbg" y="5" x="16.5" height="12" width="57"></rect><text class="entity" y="14" x="45"><tspan>linecolor=</tspan></text><rect class="textbg" y="19" x="22.2" height="12" width="45.6"></rect><text class="entity" y="28" x="45"><tspan>"orange"</tspan></text></g></g><g id="b"><rect style="fill:yellow;" height="32" width="90"></rect><g id="b_txt"><rect style="fill: yellow; stroke:yellow;" class="textbg" y="5" x="10.799999999999997" height="12" width="68.4"></rect><text class="entity" y="14" x="45"><tspan>textbgcolor=</tspan></text><rect style="fill: yellow; stroke:yellow;" class="textbg" y="19" x="22.2" height="12" width="45.6"></rect><text class="entity" y="28" x="45"><tspan>"yellow"</tspan></text></g></g><g id="arcrow"><line style="stroke : orange;" class="arcrow" y2="16" x2="45" y1="-16" x1="45"></line><line class="arcrow" y2="16" x2="189" y1="-16" x1="189"></line></g><g id="arcrowomit"><line style="stroke : orange;" class="arcrowomit" y2="16" x2="45" y1="-16" x1="45"></line><line class="arcrowomit" y2="16" x2="189" y1="-16" x1="189"></line></g><g id="0_0"><line style="stroke: blue;" class="callback" y2="0" x2="189" y1="0" x1="45"></line><g id="0_0_txt"><rect class="textbg" y="-13" x="71.4" height="12" width="91.2"></rect><text y="-4" x="117"><tspan>linecolor="blue"</tspan></text><rect class="textbg" y="1" x="117" height="12" width="0"></rect><text y="10" x="117"><tspan></tspan></text></g></g><g id="1_0"><line class="returnvalue" y2="0" x2="45" y1="0" x1="189"></line><g id="1_0_txt"><rect class="textbg" y="-13" x="68.55" height="12" width="96.9"></rect><text style="fill:green;" y="-4" x="117"><tspan>textcolor="green"</tspan></text><rect class="textbg" y="1" x="117" height="12" width="0"></rect><text style="fill:green;" y="10" x="117"><tspan></tspan></text></g></g><g id="2_0"><line class="method" y2="0" x2="189" y1="0" x1="45"></line><g id="2_0_txt"><rect style="fill: lime; stroke:lime;" class="textbg" y="-13" x="65.69999999999999" height="12" width="102.60000000000001"></rect><text y="-4" x="117"><tspan>textbgcolor="lime"</tspan></text><rect style="fill: lime; stroke:lime;" class="textbg" y="1" x="117" height="12" width="0"></rect><text y="10" x="117"><tspan></tspan></text></g></g><g id="3_0"><path style="fill:pink;stroke:violet;" class="box" d="M-25,-14l131,0 l0,9 l9,0 m-9,-9 l9,9 l0,19 l-140,0 l0,-28 "></path><g id="3_0_txt"><rect style="fill: pink; stroke:pink;" class="textbg" y="-7" x="7.949999999999996" height="12" width="74.10000000000001"></rect><text style="fill:red;" y="2" x="45"><tspan>color bonanza</tspan></text></g></g><g id="3_1"><path style="fill:cyan;stroke:#7777FF;" class="box" d="M119,-14l131,0 l0,9 l9,0 m-9,-9 l9,9 l0,19 l-140,0 l0,-28 "></path><g id="3_1_txt"><rect style="fill: cyan; stroke:cyan;" class="textbg" y="-13" x="174.75" height="12" width="28.5"></rect><text style="fill:blue;" y="-4" x="189"><tspan>color</tspan></text><rect style="fill: cyan; stroke:cyan;" class="textbg" y="1" x="169.05" height="12" width="39.9"></rect><text style="fill:blue;" y="10" x="189"><tspan>bonanza</tspan></text></g></g></g></defs><g transform="translate(39,3) scale(1,1)" id="body"><g id="__background"><rect class="bglayer" y="-3" x="-39" height="198" width="318"></rect></g><g id="sequence"><use xlink:href="#a" y="0" x="0"></use><use xlink:href="#b" y="0" x="144"></use><use xlink:href="#arcrow" y="48" x="0"></use><use xlink:href="#arcrow" y="80" x="0"></use><use xlink:href="#0_0" y="80" x="0"></use><use xlink:href="#arcrow" y="112" x="0"></use><use xlink:href="#1_0" y="112" x="0"></use><use xlink:href="#arcrow" y="144" x="0"></use><use xlink:href="#2_0" y="144" x="0"></use><use xlink:href="#arcrow" y="176" x="0"></use><use xlink:href="#arcrow" y="176" x="0"></use></g><g id="notelayer"><use xlink:href="#3_0" y="176" x="0"></use><use xlink:href="#3_1" y="176" x="0"></use></g></g></svg>