<svg height="234" width="352" xmlns:xlink="http://www.w3.org/1999/xlink" xmlns="http://www.w3.org/2000/svg" id="__svg_output" version="1.1"><desc id="__msc_source">

# Generated by mscgen_js - http://sverweij.github.io/mscgen_js
hscale=0.7, watermark="Watermark";
Alice =&gt; Bob : do something funny;
Bob =&gt; pocket : "fetch (nose flute)";
Bob &gt;&gt; Alice : PHEEE!;
Alice =&gt; Alice: hihihi;</desc><defs><style type="text/css">svg {     font-family: Helvetica, sans-serif;     font-size: 9pt;     background-color: white;     stroke : black;     color  : black; } rect {     fill: none;     stroke: black;     stroke-width: 2; } .bglayer {     fill:white;     stroke: white;     stroke-width: 0; } rect.textbg {     fill:white;     stroke:white;     stroke-width:0;     opacity: 0.9; } line {     stroke: black;     stroke-width: 2; } .arcrowomit {     stroke-dasharray: 2,2; } text {     color: inherit;     stroke: none;     text-anchor: middle; } text.entity {     text-decoration : underline; } text.anchor-start {     text-anchor: start; }path {     stroke: black;     color: black;     stroke-width: 2;     fill: none; } .dotted {    stroke-dasharray: 5,2; } .striped {     stroke-dasharray: 10,5; } .arrow-marker {     overflow:visible; } .arrow-style {     stroke : black;     stroke-dasharray : 100,1; /* 'none' should work, but doesn't in webkit */     stroke-width : 1; } .filled {     stroke:inherit;     fill:black; /* no-inherit */ } .arcrowomit {     stroke-dasharray: 2,2; } .box {     /* fill: #ffc;  no-inherit */     fill : white;     opacity: 0.9; } .boxtext, .arctext {     font-size: 0.8em;     text-anchor: middle; } .comment {     stroke-dasharray: 5,2; } .signal {     marker-end : url(#signal); } .signal-u {     marker-end : url(#signal-u); } .signal-both {     marker-end : url(#signal);     marker-start : url(#signal-l); } .signal-both-u {     marker-end : url(#signal-u);     marker-start : url(#signal-lu); } .signal-both-self {     marker-end : url(#signal-u);     marker-start : url(#signal-l); } .method {     marker-end : url(#method); } .method-both {     marker-end : url(#method);     marker-start : url(#method-l); } .returnvalue {     stroke-dasharray: 5,2;     marker-end : url(#callback); } .returnvalue-both {     stroke-dasharray: 5,2;     marker-end : url(#callback);     marker-start : url(#callback-l); } .callback {     marker-end : url(#callback); } .callback-both {     marker-end : url(#callback);     marker-start : url(#callback-l); } .emphasised {     marker-end : url(#method); } .emphasised-both {     marker-end : url(#method);     marker-start : url(#method-l); } .lost {     marker-end : url(#lost); } .inherit {     stroke : inherit;     color : inherit; } .inherit-fill {     fill : inherit; } .watermark {     stroke: black;     color : black;     fill  : black;     font-size: 48pt;     font-weight: bold;     opacity : 0.14; }</style><marker markerHeight="10" markerWidth="10" markerUnits="strokeWidth" refY="3" refX="9" viewBox="0 0 10 10" class="arrow-marker" id="signal" orient="auto"><path class="arrow-style" d="M 9 3 l -8 2"></path></marker><marker markerHeight="10" markerWidth="10" markerUnits="strokeWidth" refY="3" refX="9" viewBox="0 0 10 10" class="arrow-marker" id="signal-u" orient="auto"><path class="arrow-style" d="M 9 3 l -8 -2"></path></marker><marker markerHeight="10" markerWidth="10" markerUnits="strokeWidth" refY="3" refX="9" viewBox="0 0 10 10" class="arrow-marker" id="signal-l" orient="auto"><path class="arrow-style" d="M 9 3 l 8 2"></path></marker><marker markerHeight="10" markerWidth="10" markerUnits="strokeWidth" refY="3" refX="9" viewBox="0 0 10 10" class="arrow-marker" id="signal-lu" orient="auto"><path class="arrow-style" d="M 9 3 l 8 -2"></path></marker><marker markerHeight="10" markerWidth="10" markerUnits="strokeWidth" refY="3" refX="9" viewBox="0 0 10 10" class="arrow-marker" id="method" orient="auto"><polygon class="filled arrow-style" points="1,1 9,3 1,5"></polygon></marker><marker markerHeight="10" markerWidth="10" markerUnits="strokeWidth" refY="3" refX="9" viewBox="0 0 10 10" class="arrow-marker" id="method-l" orient="auto"><polygon class="filled arrow-style" points="17,1 9,3 17,5"></polygon></marker><marker markerHeight="10" markerWidth="10" markerUnits="strokeWidth" refY="3" refX="9" viewBox="0 0 10 10" class="arrow-marker" id="callback" orient="auto"><path class="arrow-style" d="M 1 1 l 8 2 l -8 2"></path></marker><marker markerHeight="10" markerWidth="10" markerUnits="strokeWidth" refY="3" refX="9" viewBox="0 0 10 10" class="arrow-marker" id="callback-l" orient="auto"><path class="arrow-style" d="M 17 1 l -8 2 l 8 2"></path></marker><marker markerHeight="10" markerWidth="10" markerUnits="strokeWidth" refY="3" refX="9" viewBox="0 0 10 10" class="arrow-marker" id="lost" orient="auto"><path class="arrow-style" d="M6.5,-0.5 L11.5,5.5 M6.5,5.5 L11.5,-0.5"></path></marker><g id="__defs"><g id="Alice"><rect style="" height="38" width="70"></rect><g id="Alice_txt"><rect class="textbg" y="12.25" x="21.016666412353516" height="13" width="27.96666717529297"></rect><text class="entity" y="22.25" x="35"><tspan>Alice</tspan></text></g></g><g id="Bob"><rect style="" height="38" width="70"></rect><g id="Bob_txt"><rect class="textbg" y="12.25" x="23.33333396911621" height="13" width="23.33333396911621"></rect><text class="entity" y="22.25" x="35"><tspan>Bob</tspan></text></g></g><g id="pocket"><rect style="" height="38" width="70"></rect><g id="pocket_txt"><rect class="textbg" y="12.25" x="16.33333396911621" height="13" width="37.33333206176758"></rect><text class="entity" y="22.25" x="35"><tspan>pocket</tspan></text></g></g><g id="arcrow"><line class="arcrow" y2="19" x2="35" y1="-19" x1="35"></line><line class="arcrow" y2="19" x2="147" y1="-19" x1="147"></line><line class="arcrow" y2="19" x2="259" y1="-19" x1="259"></line></g><g id="0_0"><line class="method" y2="0" x2="147" y1="0" x1="35"></line><g id="0_0_txt"><rect class="textbg" y="-13.75" x="37.68333435058594" height="13" width="106.63333129882812"></rect><text y="-3.75" x="91"><tspan>do something funny</tspan></text><rect class="textbg" height="0" width="0"></rect><text y="10.25" x="91"><tspan></tspan></text></g></g><g id="arcrow_0"><line class="arcrow" y2="19" x2="35" y1="-19" x1="35"></line><line class="arcrow" y2="19" x2="147" y1="-19" x1="147"></line><line class="arcrow" y2="19" x2="259" y1="-19" x1="259"></line></g><g id="1_0"><line class="method" y2="0" x2="259" y1="0" x1="147"></line><g id="1_0_txt"><rect class="textbg" y="-13.75" x="157.35000610351562" height="13" width="91.30000305175781"></rect><text y="-3.75" x="203"><tspan>fetch (nose flute)</tspan></text><rect class="textbg" height="0" width="0"></rect><text y="10.25" x="203"><tspan></tspan></text></g></g><g id="arcrow_1"><line class="arcrow" y2="19" x2="35" y1="-19" x1="35"></line><line class="arcrow" y2="19" x2="147" y1="-19" x1="147"></line><line class="arcrow" y2="19" x2="259" y1="-19" x1="259"></line></g><g id="2_0"><line class="returnvalue" y2="0" x2="35" y1="0" x1="147"></line><g id="2_0_txt"><rect class="textbg" y="-13.75" x="68.00833129882812" height="13" width="45.983333587646484"></rect><text y="-3.75" x="91"><tspan>PHEEE!</tspan></text><rect class="textbg" height="0" width="0"></rect><text y="10.25" x="91"><tspan></tspan></text></g></g><g id="arcrow_2"><line class="arcrow" y2="19" x2="35" y1="-19" x1="35"></line><line class="arcrow" y2="19" x2="147" y1="-19" x1="147"></line><line class="arcrow" y2="19" x2="259" y1="-19" x1="259"></line></g><g id="3_0"><g id="selfie"><path class="method" d="M35, -7.6 l37.333333333333336,0 l0,15.2 l-37.333333333333336,0"></path></g><g id="3_0_txt"><rect class="textbg" y="-21.350000381469727" x="36" height="13" width="29.950000762939453"></rect><text class="anchor-start" y="-11.35" x="37"><tspan>hihihi</tspan></text><rect class="textbg" height="0" width="0"></rect><text class="anchor-start" y="2.6500000000000004" x="37"><tspan></tspan></text></g></g><g id="arcrow_3"><line class="arcrow" y2="19" x2="35" y1="-19" x1="35"></line><line class="arcrow" y2="19" x2="147" y1="-19" x1="147"></line><line class="arcrow" y2="19" x2="259" y1="-19" x1="259"></line></g></g></defs><g transform="translate(29,3) scale(1,1)" id="__body"><g id="__background"><rect class="bglayer" y="-3" x="-29" height="234" width="352"></rect></g><g id="__arcspanlayer"></g><g id="__lifelinelayer"><use xlink:href="#arcrow" y="57" x="0"></use><use xlink:href="#arcrow_0" y="95" x="0"></use><use xlink:href="#arcrow_1" y="133" x="0"></use><use xlink:href="#arcrow_2" y="171" x="0"></use><use xlink:href="#arcrow_3" y="209" x="0"></use></g><g id="__sequencelayer"><use xlink:href="#Alice" y="0" x="0"></use><use xlink:href="#Bob" y="0" x="112"></use><use xlink:href="#pocket" y="0" x="224"></use><use xlink:href="#0_0" y="95" x="0"></use><use xlink:href="#1_0" y="133" x="0"></use><use xlink:href="#2_0" y="171" x="0"></use><use xlink:href="#3_0" y="209" x="0"></use></g><g id="__notelayer"></g><g id="__watermark"><text transform="rotate(-33.61487625744826 176 117)" class="watermark" y="117" x="176"><tspan>Watermark</tspan></text></g></g></svg>