<svg version="1.1" xmlns="http://www.w3.org/2000/svg" stroke="none" fill="lightgray" viewBox="0 0 32 32"><path d="M9.208,22.73c-0.292-0.396-0.552-0.795-0.779-1.23c-0.267-0.423-0.399-0.934-0.399-1.527c0-0.354,0.05-0.654,0.152-0.893c0.089-0.251,0.171-0.482,0.248-0.693c-0.459,0.053-0.893,0.078-1.3,0.078c-1.927-0.023-3.444-0.568-4.55-1.636v7.21c0.989-0.453,2.013-0.771,3.073-0.955C7.078,22.874,8.264,22.756,9.208,22.73zM10.311,23.872c-0.257-0.026-0.56-0.039-0.908-0.039c-0.207-0.026-0.734,0-1.584,0.079c-0.837,0.117-1.693,0.309-2.568,0.57c-0.206,0.08-0.496,0.197-0.869,0.354c-0.374,0.171-0.753,0.414-1.139,0.729c-0.247,0.229-0.468,0.479-0.664,0.771v1.104c0,1.026,0.838,1.865,1.869,1.865h10.188c0-0.021,0.002-0.051,0.002-0.068c0-1.021-0.335-1.922-1.004-2.688C12.924,25.812,11.817,24.925,10.311,23.872zM6.751,16.594c0.656,0.514,1.404,0.771,2.247,0.771c1.065-0.039,1.952-0.422,2.662-1.146c0.342-0.514,0.562-1.041,0.66-1.581c0.059-0.54,0.088-0.995,0.088-1.364c0-1.594-0.408-3.202-1.224-4.822c-0.382-0.777-0.886-1.41-1.51-1.897C9.037,6.094,8.304,5.85,7.476,5.824C6.38,5.848,5.468,6.289,4.742,7.146C4.129,8.042,3.837,9.043,3.863,10.15c0,1.463,0.428,2.985,1.284,4.566C5.562,15.453,6.097,16.079,6.751,16.594zM27.553,2.707H4.447c-1.031,0-1.869,0.838-1.869,1.869v2.507c0.118-0.125,0.24-0.25,0.367-0.372c1.15-0.947,2.345-1.565,3.584-1.855c1.227-0.25,2.376-0.375,3.45-0.375h8.087l-2.5,1.458h-2.494c0.254,0.158,0.54,0.388,0.857,0.69c0.304,0.315,0.603,0.703,0.895,1.164c0.279,0.434,0.527,0.946,0.743,1.538c0.177,0.592,0.267,1.282,0.267,2.071c-0.024,1.447-0.343,2.604-0.958,3.472c-0.302,0.421-0.621,0.809-0.958,1.164c-0.374,0.354-0.771,0.718-1.193,1.085c-0.241,0.25-0.464,0.533-0.669,0.848c-0.241,0.329-0.361,0.711-0.361,1.146c0,0.421,0.124,0.769,0.371,1.046c0.21,0.264,0.414,0.493,0.612,0.688l1.372,1.125c0.853,0.688,1.6,1.467,2.243,2.31c0.604,0.854,0.921,1.972,0.943,3.354c0,0.562-0.071,1.106-0.223,1.646H27.54c1.03,0,1.869-0.838,1.869-1.87V4.576C29.422,3.545,28.584,2.707,27.553,2.707zM29.023,10.953h-4.244v4.244h-2.057v-4.244H18.48V8.897h4.242V4.654h2.057v4.243h4.244V10.953z"/></svg>